<?xml version="1.0" encoding="UTF-8" standalone="no"?>
<svg
   xmlns:dc="http://purl.org/dc/elements/1.1/"
   xmlns:cc="http://creativecommons.org/ns#"
   xmlns:rdf="http://www.w3.org/1999/02/22-rdf-syntax-ns#"
   xmlns:svg="http://www.w3.org/2000/svg"
   xmlns="http://www.w3.org/2000/svg"
   xmlns:sodipodi="http://sodipodi.sourceforge.net/DTD/sodipodi-0.dtd"
   xmlns:inkscape="http://www.inkscape.org/namespaces/inkscape"
   version="1.1"
   id="svg2"
   xml:space="preserve"
   width="4666.6665"
   height="2666.6667"
   viewBox="0 0 4666.6665 2666.6667"
   sodipodi:docname="6447.eps"><metadata
     id="metadata8"><rdf:RDF><cc:Work
         rdf:about=""><dc:format>image/svg+xml</dc:format><dc:type
           rdf:resource="http://purl.org/dc/dcmitype/StillImage" /></cc:Work></rdf:RDF></metadata><defs
     id="defs6"><clipPath
       clipPathUnits="userSpaceOnUse"
       id="clipPath280"><path
         d="m 18274.8,2196.5 v 0 l 7.6,66.2 v 0 l -7.6,-66.2"
         id="path278" /></clipPath></defs><sodipodi:namedview
     pagecolor="#ffffff"
     bordercolor="#666666"
     borderopacity="1"
     objecttolerance="10"
     gridtolerance="10"
     guidetolerance="10"
     inkscape:pageopacity="0"
     inkscape:pageshadow="2"
     inkscape:window-width="640"
     inkscape:window-height="480"
     id="namedview4" /><g
     id="g10"
     inkscape:groupmode="layer"
     inkscape:label="ink_ext_XXXXXX"
     transform="matrix(1.3333333,0,0,-1.3333333,0,2666.6667)"><g
       id="g12"
       transform="scale(0.1)"><path
         d="M 0,0 H 35000 V 20000 H 0 Z"
         style="fill:#ffffff;fill-opacity:1;fill-rule:nonzero;stroke:none"
         id="path14" /><path
         d="m 23707.2,18834.5 c 4575.5,-2806.9 3137.6,-7578 5095.9,-9005.9 2538.4,-1850.9 3937.3,-9495.998 -1118,-9648.401 -10053.9,-303 -23046.25,0 -23046.25,0 0,0 -3652.245,3286.901 -1502.74,8754.601 2149.5,5467.8 7709.09,4041.5 9773.09,6501.9 2064,2460.4 6222.5,6204.7 10798,3397.8"
         style="fill:#caf0ff;fill-opacity:1;fill-rule:nonzero;stroke:none"
         id="path16" /><path
         d="m 28017.5,333 h -5168.4 c -34.2,40 -245.3,280.402 -614.6,551.801 200.9,250.999 321.1,569.499 321.1,916.099 0,275.7 -76.1,533.7 -208.4,754.1 h 745.4 v 155.5 h -853 c -268.7,339.5 -684.5,557.4 -1151,557.4 -188.3,0 -368.2,-35.5 -533.6,-100.1 l 111.8,144.5 v 408.1 c 0,73.2 -44,139.9 -112.2,166.6 -26,10.3 -51.4,22.9 -76.1,37.8 v 112.6 h -138.6 c -137.3,142.1 -249.8,355.3 -341.4,593.7 v 81.9 h -30.2 c -242.1,679 -323.8,1514.4 -323.8,1514.4 h -668 c 111.7,-303.7 205.6,-715.5 282.8,-1149.8 v -24.8 h 4.4 c 59.7,-339.3 109.2,-691.2 149.2,-1015.4 h -153.6 v -335.7 h 192.9 c 61.9,-558.5 91.1,-969.7 91.1,-969.7 l -26,-45.7 h -258 v -310.2 h -535.8 c -12.3,6.8 -23.8,14.1 -34.2,21.9 l -72.4,-0.3 57.9,1380 -363.4,-92.8 -3.5,-1299.6 c -2.6,-2.6 -4.9,-5.7 -6.9,-9.2 h -396.6 c -12.2,6.8 -23.7,14.1 -34.1,21.9 l -47.6,-0.2 116.6,1252.2 -427.7,34.9 -3.5,-1288.6 c -10.5,-1.9 -19.8,-9.3 -26.2,-20.2 h -170.4 c -1320.8,70.8 -1366.4,986.9 -1153.8,1594.1 212.5,607.3 475.2,752.4 475.2,752.4 0,0 -3239.9,-387.6 -3680.8,-507.4 h -175.8 V 4122 c -168.4,-138.5 -270.7,-382.8 -327.9,-568.7 -38.5,-125.5 54.5,-252.8 185.8,-254.9 l 142.1,-2.1 v -130 h 819.8 c -347.3,-136.8 -629.8,-402.3 -788.8,-737.8 h -31 v -69.9 c -70.7,-172 -109.7,-360.3 -109.7,-557.7 0,-810.298 656.8,-1467.099 1467,-1467.099 82.1,0 162.7,6.801 241.1,19.801 2.9,-9.102 5.7,-16.301 7.4,-20.602 h -1048.2 c -446.5,347 -731.8,437.902 -908.2,437.902 -194.3,0 -256.7,-110.3 -256.7,-110.3 0,0 -107.9,344.098 -1261.8,478.998 -122.7,14.3 -223.7,20.7 -306.3,20.7 -693.85,0 -85.1,-452.398 -85.1,-452.398 -21.5,0.2 -42.1,0.297 -62.2,0.297 -142.5,0 -250,-5.597 -328.8,-15.398 -99.8,148.398 -245.95,304.601 -450.71,393.499 -66.97,29.1 -131.08,41.5 -191.85,41.5 -366.69,0 -610.39,-453.999 -610.39,-453.999 C 8768.82,1003 8573.53,1081.9 8410.06,1081.9 c -150.33,0 -273.75,-66.7 -273.75,-66.7 -246.45,529.7 -488.3,684.9 -687.19,684.9 -281.74,0 -477.25,-311.6 -477.25,-311.6 -18.52,2 -36.2,2.9 -53.21,2.9 -367,0 -393.46,-438.4 -393.46,-438.4 L 6791.61,333 H 4915.85 v 1239 h 759.4 v 146.5 826 h 759.39 v -479.6 h 346.39 v 1305.6 h 1199.06 v -679.4 h 333.06 V 7875.3 L 12256.7,7913 V 5610.7 l 146.5,-1.9 h 186.6 v 1987.1 h 266.4 v 574.3 h 386.4 v 1676.5 h 559.5 V 8170.2 h 386.4 V 7595.9 H 14455 V 5788.5 h 319.7 v 4399.7 h 173.2 v 589.8 h 502.4 c 6.5,-211.3 70.4,-795.8 578.4,-795.8 0.1,0 0.1,0 0.2,0 0,0 3.7,-0.2 10.4,-0.2 21.8,0 75.7,2.5 137.5,24.3 19.4,4.8 78.6,23 140.8,69.7 l -147.3,-245.6 412.1,-362.5 c 0,0 23.3,42 57.5,102.9 V 7393 l 506.3,13.3 V 9194.7 H 18585 l 64.6,-3361.8 215.2,13.4 V 6981 h 466.3 v 892.6 h 279.8 v 599.6 h 1092.4 v -599.6 h 279.8 V 6981 h 466.3 V 4886.3 l 399.7,13.3 v 2077.5 h 1336.1 V 5022.6 l 862.2,10.4 -13.4,2441 h 1292.3 V 5448.9 h 266.5 V 2251.4 h 213.2 v -532.9 h 213.1 v 692.8 h 972.6 v -692.8 h 266.4 v 346.4 h 759.4 V 333 M 10688.9,3207.5 v -604.4 h 466.6 v 604.4 h -466.6 m -1333.33,0 v -604.4 h 466.64 v 604.4 H 9355.57 M 24560,3553.9 v -335.8 h 259.2 v 335.8 H 24560 m -433.4,0 v -335.8 h 259.2 v 335.8 h -259.2 m -2197,-171.8 v -155.6 h 1163 v 155.6 h -1163 m -10654,857.8 v -604.4 h 466.6 v 604.4 h -466.6 m -1203,0 v -604.4 h 466.6 v 604.4 h -466.6 m 10626.7,-202.5 v -335.7 h 259.2 v 335.7 h -259.2 m 4294.2,115 v -335.7 h 259.2 v 335.7 h -259.2 m -3063.9,-98.8 V 3898 h 1163 v 155.6 h -1163 m 3063.9,697.3 v -335.7 h 259.2 v 335.7 h -259.2 m -433.5,0 v -335.7 h 259.2 v 335.7 H 24560 m -11783.7,-89 v -155.6 h 1431.1 v 155.6 h -1431.1 m 9153.3,63.2 v -155.6 h 1163 v 155.6 h -1163 m -4660,35.5 v -155.5 h 1163 v 155.5 h -1163 m -6580.7,794.9 V 4951 h 466.6 v 604.5 h -466.6 m -1333.33,0 V 4951 h 466.64 v 604.5 h -466.64 m -717.04,0 V 4951 h 466.64 v 604.5 h -466.64 m 15488.07,-206 v -335.8 h 259.2 v 335.8 h -259.2 m -3427.3,39 v -335.7 h 259.2 v 335.7 h -259.2 m -480,0 v -335.7 h 259.2 v 335.7 h -259.2 m -2949.7,43.7 v -155.6 h 1163 v 155.6 h -1163 m -4493.3,123 v -155.6 h 1431.1 v 155.6 h -1431.1 m 2283,193.8 v -335.8 h 259.2 V 5749 h -259.2 m 6870.3,-16.6 v -155.6 h 1163 v 155.6 h -1163 m 3063.9,215.6 v -335.8 h 259.2 V 5948 h -259.2 m -866.9,0 v -335.8 h 259.2 V 5948 h -259.2 m -4387.3,116.1 v -335.8 h 259.2 v 335.8 h -259.2 M 9355.57,6535.2 v -604.5 h 466.64 v 604.5 h -466.64 m 15637.93,11.3 v -335.8 h 259.2 v 335.8 h -259.2 m -3063.9,-142.6 v -155.6 h 1163 v 155.6 h -1163 m -4660,35.5 v -155.5 h 1163 v 155.5 h -1163 m -4493.3,9.1 V 6293 h 1431.1 v 155.5 h -1431.1 m 7923,291.1 v -335.7 h 259.2 v 335.7 h -259.2 m -1440,0 v -335.7 h 259.2 v 335.7 h -259.2 m 2670.3,0 v -155.5 h 1163 v 155.5 h -1163 m -5791.8,194.6 v -335.8 h 259.2 v 335.8 h -259.2 m -3361.5,-39 v -155.6 h 1431.1 v 155.6 H 12776.3 M 24993.5,7145 v -335.7 h 259.2 V 7145 h -259.2 m -866.9,0 v -335.7 h 259.2 V 7145 h -259.2 m -12851,354.6 v -604.4 h 466.6 v 604.4 h -466.6 m -1203,0 v -604.4 h 466.6 v 604.4 h -466.6 m -717.03,0 v -604.4 h 466.64 v 604.4 h -466.64 m -717.04,0 v -604.4 h 466.64 v 604.4 h -466.64 m 4137.77,-157.7 v -155.6 h 1431.1 v 155.6 h -1431.1 m 2822.2,184.9 V 7191 h 259.3 v 335.8 h -259.3 m -539.2,0 V 7191 h 259.2 v 335.8 h -259.2 m 2210.3,-80.1 v -155.6 h 1163 v 155.6 h -1163 m 3247.4,205 v -335.8 h 259.2 v 335.8 H 20517 m -556.9,0 v -335.8 h 259.2 v 335.8 h -259.2 m -2690.5,130.8 v -155.6 h 1163 v 155.6 h -1163 m -1131.8,336.9 v -335.8 h 259.2 v 335.8 h -259.2 m -1078.5,0 v -335.8 h 259.2 v 335.8 h -259.2 m 2210.3,334.6 v -155.6 h 1163 V 8454 h -1163 m -1131.8,258 V 8376.2 H 16397 V 8712 h -259.2 m -539.3,0 v -335.8 h 259.3 V 8712 h -259.3 m 1671.1,77.7 v -155.5 h 1163 v 155.5 h -1163 m -1131.8,514.9 v -335.8 h 259.2 v 335.8 h -259.2 m -1078.5,0 v -335.8 h 259.2 v 335.8 h -259.2 m 539.2,592.5 v -335.7 h 259.3 v 335.7 h -259.3 m -539.2,0 v -335.7 h 259.2 v 335.7 h -259.2 M 19616.9,333 h -1943.5 l 1238.5,9 c 0,0 -678.5,390.699 -999.9,390.699 -70.2,0 -123.3,-18.597 -148.7,-63.898 0,0 -463.8,95.898 -774.1,95.898 -296.9,0 -453,-87.801 72.8,-431.699 h -1828.7 c -114,99.5 -211.2,179.199 -293.6,241.902 398.1,262.399 660.9,713.498 660.9,1225.998 0,103.6 -10.7,204.6 -31.1,302.2 208.5,-163.7 407.8,-178.1 471.2,-178.1 13.5,0 20.8,0.7 20.8,0.7 h 3532.4 l 37.8,48.8 c -6.7,-56.9 -10.2,-114.9 -10.2,-173.6 0,-349.1 122,-669.8 325.6,-921.599 -163.2,-93.699 21.3,-331.199 21.3,-331.199 -97.6,19.3 -173.4,27.5 -231.9,27.5 -292.8,0 -148.4,-205.2 -119.6,-242.602 m -9140,0 h -174.8 c -4.5,13.898 -13,38.898 -26,71.699 81.1,-31.5 157,-57.297 200.8,-71.699 m 4624.4,2570.5 c -241,211.7 -552.1,345.6 -893.9,362.6 v 8.2 l 821.7,-12.6 c 19,-132 43.4,-251 72.2,-358.2"
         style="fill:#4e92e7;fill-opacity:1;fill-rule:nonzero;stroke:none"
         id="path18" /><path
         d="m 21032.5,18308.6 c -429.1,0 -794.4,-272.3 -932.9,-653.5 -98,54.6 -210.8,85.9 -331,85.9 -376,0 -680.9,-304.9 -680.9,-680.9 0,-22.3 1.2,-44.3 3.3,-66.1 h 4431.3 c -55.8,242.9 -273.1,424.1 -533,424.1 -47.7,0 -93.9,-6.1 -138,-17.6 -128.3,274.3 -406.6,464.3 -729.3,464.3 -83.4,0 -163.9,-12.7 -239.6,-36.3 -173.7,287.7 -489.4,480.1 -849.9,480.1"
         style="fill:#ffffff;fill-opacity:1;fill-rule:nonzero;stroke:none"
         id="path20" /><path
         d="m 7178.36,10969.3 c 29.51,128.5 144.46,224.3 281.88,224.3 25.23,0 49.7,-3.2 73.04,-9.3 67.81,145 215,245.5 385.69,245.5 44.13,0 86.68,-6.7 126.71,-19.1 91.88,152.1 258.83,253.8 449.53,253.8 226.9,0 420.16,-144 493.39,-345.6 51.83,28.9 111.5,45.5 175.06,45.5 198.88,0 360.1,-161.3 360.1,-360.1 0,-11.8 -0.6,-23.5 -1.71,-35 H 7178.36"
         style="fill:#ffffff;fill-opacity:1;fill-rule:nonzero;stroke:none"
         id="path22" /><path
         d="m 15225.8,14445.6 c 35.7,155.7 175,271.8 341.5,271.8 30.6,0 60.2,-3.9 88.5,-11.3 82.1,175.7 260.5,297.5 467.3,297.5 53.4,0 105,-8.1 153.5,-23.2 111.3,184.3 313.6,307.6 544.6,307.6 274.9,0 509.1,-174.5 597.8,-418.8 62.8,35.1 135.1,55.1 212.1,55.1 241,0 436.3,-195.4 436.3,-436.3 0,-14.3 -0.7,-28.4 -2.1,-42.4 h -2839.5"
         style="fill:#ffffff;fill-opacity:1;fill-rule:nonzero;stroke:none"
         id="path24" /><path
         d="m 23217.2,12769.8 c 35.7,155.6 175,271.8 341.5,271.8 30.6,0 60.2,-4 88.5,-11.3 82.2,175.7 260.5,297.5 467.3,297.5 53.4,0 105,-8.2 153.5,-23.3 111.3,184.4 313.6,307.6 544.6,307.6 275,0 509.1,-174.4 597.8,-418.7 62.8,35 135.1,55 212.1,55 241,0 436.3,-195.3 436.3,-436.3 0,-14.2 -0.7,-28.4 -2.1,-42.3 h -2839.5"
         style="fill:#ffffff;fill-opacity:1;fill-rule:nonzero;stroke:none"
         id="path26" /><path
         d="m 4339.71,9044.2 c 35.76,155.6 175.04,271.7 341.54,271.7 30.56,0 60.21,-3.9 88.47,-11.3 82.17,175.8 260.5,297.5 467.3,297.5 53.46,0 105.03,-8.1 153.52,-23.2 111.33,184.3 313.58,307.6 544.64,307.6 274.91,0 509.05,-174.5 597.77,-418.7 62.8,35 135.1,55 212.1,55 240.97,0 436.3,-195.3 436.3,-436.3 0,-14.3 -0.73,-28.4 -2.08,-42.3 H 4339.71"
         style="fill:#ffffff;fill-opacity:1;fill-rule:nonzero;stroke:none"
         id="path28" /><path
         d="m 9569.43,10491.9 -96.95,78.3 c 2.45,3.1 61.45,75.9 175.05,201.1 l 92.33,-83.7 c -110.91,-122.3 -169.85,-195 -170.43,-195.7"
         style="fill:#ffffff;fill-opacity:1;fill-rule:nonzero;stroke:none"
         id="path30" /><path
         d="m 17240.2,14077.5 c -175.9,10.5 -354.5,14.9 -530.1,13.2 l -1.1,124.7 c 178.3,1.6 359.9,-2.8 538.6,-13.4 l -7.4,-124.5 m -1586.7,-69 -18.1,123.3 c 177.6,26 357.7,46.2 535.4,60 l 9.7,-124.2 c -174.9,-13.7 -352.2,-33.6 -527,-59.1 m 2638.3,-65.3 c -173.6,34.1 -349.7,62.7 -523.6,84.9 l 15.8,123.7 c 176.7,-22.6 355.6,-51.6 531.8,-86.3 l -24,-122.3 m -3675.5,-156.4 -33.7,120 c 173.1,48.7 349,92.3 522.7,129.5 l 26.1,-121.9 c -171.1,-36.6 -344.4,-79.6 -515.1,-127.6 m 4700.9,-114.5 c -168.5,56 -339.6,107.1 -508.5,151.8 l 31.9,120.5 c 171.4,-45.4 344.9,-97.2 515.9,-154 l -39.3,-118.3 m -5703.5,-234.2 -47.7,115.1 c 166.4,69.1 335.6,133.6 503,191.9 l 41,-117.7 c -165.1,-57.5 -332.1,-121.2 -496.3,-189.3 m 6689.6,-158.7 c -161.5,75.1 -325.5,146 -487.5,210.6 l 46.2,115.8 c 164.1,-65.5 330.3,-137.3 493.9,-213.4 l -52.6,-113 m -7647.2,-301.5 -59.8,109.3 c 158,86.5 319,169.3 478.5,246.1 l 54,-112.4 c -157.5,-75.8 -316.6,-157.5 -472.7,-243 m 8586,-195.8 c -153.3,91.2 -309.2,178.8 -463.2,260.5 l 58.4,110.2 c 155.8,-82.7 313.4,-171.4 468.5,-263.6 l -63.7,-107.1 m -9492.4,-360.3 -70.2,103 c 148.5,101.2 300.4,199.6 451.5,292.4 l 65.2,-106.3 c -149.4,-91.7 -299.6,-189 -446.5,-289.1 M 22130.8,12198 c -145.1,104.4 -292.4,206 -438,301.8 l 68.5,104.1 c 147.1,-96.7 295.9,-199.3 442.3,-304.8 l -72.8,-101.1 m -11232.1,-414.9 -79.2,96.2 c 138.2,113.8 280.4,225.6 422.7,332.5 l 74.9,-99.7 c -140.9,-105.7 -281.6,-216.4 -418.4,-329 m 12070.8,-240.2 c -136.7,115.2 -275.8,228.1 -413.2,335.5 l 76.7,98.3 c 138.7,-108.4 278.9,-222.3 416.8,-338.4 l -80.3,-95.4 m -12861.6,-472.3 -87.6,88.7 c 125.4,123.9 257.2,248.1 391.6,369.1 l 83.4,-92.6 c -133,-119.8 -263.3,-242.6 -387.4,-365.2 m 13652.9,-240.4 c -129.1,123.9 -260.2,246 -389.9,362.9 l 83.5,92.6 c 130.6,-117.8 262.7,-240.8 392.7,-365.6 l -86.3,-89.9"
         style="fill:#ffffff;fill-opacity:1;fill-rule:nonzero;stroke:none"
         id="path32" /><path
         d="m 24323,10266.4 c -60.2,63 -121.6,126.4 -182.5,188.4 l 88.9,87.3 c 61.3,-62.4 123.1,-126.2 183.7,-189.6 l -90.1,-86.1"
         style="fill:#ffffff;fill-opacity:1;fill-rule:nonzero;stroke:none"
         id="path34" /><path
         d="m 23855.7,18741.4 c -0.2,0.1 -0.4,0.2 -0.7,0.4 0.3,-0.1 0.5,-0.3 0.7,-0.4 m -5.3,3.4 c -0.3,0.1 -0.6,0.4 -0.9,0.6 0.3,-0.2 0.6,-0.4 0.9,-0.6 m -14.8,9.4 c -0.5,0.4 -0.9,0.6 -1.4,0.9 0.4,-0.2 1,-0.6 1.4,-0.9 m -5.1,3.3 c -0.8,0.5 -1.4,0.9 -2.2,1.4 0.7,-0.5 1.5,-1 2.2,-1.4 m -5.7,3.6 c -0.8,0.5 -1.7,1.1 -2.5,1.6 0.8,-0.5 1.7,-1.1 2.5,-1.6 m -5.8,3.7 c -1.1,0.7 -2.5,1.6 -3.6,2.3 1.2,-0.8 2.4,-1.6 3.6,-2.3 m -7.7,4.8 c -1.3,0.9 -2.4,1.5 -3.7,2.4 1.2,-0.8 2.5,-1.6 3.7,-2.4 m -6.3,4.1 c -1.1,0.7 -2.4,1.4 -3.5,2.1 1.1,-0.7 2.4,-1.4 3.5,-2.1 m -6.1,3.8 c -1.1,0.7 -2.6,1.6 -3.7,2.3 1.3,-0.8 2.5,-1.6 3.7,-2.3 m -6,3.8 c -1.9,1.2 -3.9,2.4 -5.8,3.6 1.9,-1.2 3.9,-2.4 5.8,-3.6 m -6.6,4.1 c -1.6,1 -3.6,2.3 -5.3,3.3 1.8,-1.1 3.6,-2.2 5.3,-3.3 m -7.4,4.6 c -1.3,0.9 -2.6,1.7 -4,2.6 1.4,-0.9 2.7,-1.7 4,-2.6 m -6.2,3.9 c -1.4,0.9 -2.9,1.9 -4.3,2.7 1.5,-0.9 2.9,-1.8 4.3,-2.7 m -6.1,3.8 c -3.8,2.4 -8.3,5.2 -12.2,7.7 4.1,-2.6 8.2,-5.1 12.2,-7.7 m -14,8.7 c -1.6,1.1 -2.7,1.7 -4.3,2.8 1.4,-0.9 2.9,-1.9 4.3,-2.8 m -6.4,4 c -1.6,1.1 -2.7,1.7 -4.4,2.8 1.5,-1 2.9,-1.8 4.4,-2.8 m -6.2,3.9 c -3.8,2.4 -8.3,5.1 -12.2,7.6 4.1,-2.6 8.1,-5.1 12.2,-7.6 m -14,8.6 c -1.6,1 -2.8,1.8 -4.5,2.8 1.5,-0.9 3,-1.9 4.5,-2.8 m -6.5,4 c -1.3,0.9 -3,1.9 -4.4,2.7 1.5,-0.9 2.9,-1.8 4.4,-2.7 m -6.2,3.8 c -1.9,1.2 -4.2,2.6 -6.1,3.8 2,-1.2 4.1,-2.5 6.1,-3.8 m -9.6,5.9 c -0.8,0.6 -1.6,1 -2.4,1.5 0.8,-0.5 1.6,-1 2.4,-1.5 m -3.6,2.2 c -0.8,0.6 -1.3,0.9 -2.2,1.4 0.8,-0.5 1.5,-0.9 2.2,-1.4 m -3.7,2.3 c -0.6,0.4 -1.3,0.8 -1.9,1.2 0.6,-0.4 1.3,-0.8 1.9,-1.2 m -4.2,2.6 c -0.3,0.1 -0.7,0.4 -1,0.6 0.3,-0.2 0.7,-0.4 1,-0.6"
         style="fill:#ffffff;fill-opacity:1;fill-rule:nonzero;stroke:none"
         id="path36" /><path
         d="m 24268,13304.5 c -48.5,15.1 -100.1,23.3 -153.5,23.3 -32.7,0 -64.6,-3.1 -95.6,-8.9 -287.6,48 -572.8,118.8 -854.8,192.7 -721.3,189.2 -1440.7,402.7 -2109.3,732.7 -386.5,190.8 -758.1,421.3 -1172.2,541.1 -609.4,176.4 -1259.8,99.8 -1892,153.7 -256.7,21.8 -530.9,81.7 -759.7,199.3 -48.6,41 -103.4,74.8 -162.9,99.9 -135.9,99.5 -244.1,227.4 -305.3,389.6 -137.9,365.4 26.6,792.7 311.5,1059.8 285,267.1 667.8,402.1 1046.4,498.1 298.2,75.6 617,139.3 844.4,346.5 188.2,171.3 292.3,423.9 494.5,578.4 192.8,147.3 437.1,180.6 685.1,180.6 107.2,0 215.1,-6.2 319.8,-12.1 93.9,-5.4 188.4,-9.7 283.2,-12.2 -300.7,-89.9 -541.5,-318.7 -648,-611.9 -98,54.6 -210.8,85.9 -331,85.9 -376,0 -680.9,-304.9 -680.9,-680.9 0,-22.3 1.2,-44.3 3.3,-66.1 h 2510.6 c -104,-3.6 -208,-8.4 -311.9,-13.1 -166.3,-7.7 -364.4,-35 -436.9,-185 -34.5,-71.4 -30.3,-155.9 -11.2,-232.8 101.2,-409.2 561.5,-622.5 980.8,-665.1 419.3,-42.6 851.6,25.8 1258.4,-84.3 558.1,-151 976.6,-610.7 1498.9,-858.8 284,-134.9 598.4,-203.6 912.8,-203.5 199.6,0 399.1,27.7 590.8,83.7 251.9,73.6 488.3,193.3 738.4,272.7 210.4,-538.8 363.4,-1076.8 492.4,-1595.2 -404.1,-157.7 -857.9,-105.6 -1292.6,-128.8 -223.6,-12 -445.5,-44.6 -667.6,-73.7 -112,181.2 -312.5,302 -541.3,302 -231,0 -433.3,-123.2 -544.6,-307.6 m -468.2,3481.2 c -409.3,0 -824.7,124.8 -1236.7,178.7 -111.8,14.7 -223.8,24.1 -336.2,29.6 h 1295.4 v 0 c -55.8,242.9 -273.1,424.1 -533,424.1 -47.7,0 -93.9,-6.1 -138,-17.6 -128.3,274.3 -406.6,464.3 -729.3,464.3 -83.4,0 -163.9,-12.7 -239.6,-36.3 -132.6,219.6 -347.8,383.6 -602.7,449 310.4,23.4 615.1,82.6 900.4,205.5 369.8,159.3 687.9,417.6 1028.4,632.5 160.3,-82.5 321.2,-172.7 482.7,-271.2 0.3,-0.2 0.7,-0.5 1,-0.6 0.8,-0.5 1.6,-1 2.3,-1.4 0.6,-0.4 1.3,-0.8 1.9,-1.2 0.5,-0.3 1,-0.6 1.5,-0.9 0.9,-0.5 1.4,-0.8 2.2,-1.4 0.4,-0.2 0.8,-0.4 1.2,-0.7 0.8,-0.5 1.6,-0.9 2.4,-1.5 1.2,-0.7 2.3,-1.4 3.5,-2.1 v 0 c 1.9,-1.2 4.2,-2.6 6.1,-3.8 0.6,-0.3 1.3,-0.7 1.8,-1.1 1.4,-0.8 3.1,-1.8 4.4,-2.7 0.7,-0.4 1.3,-0.8 2,-1.2 1.7,-1 2.9,-1.8 4.5,-2.8 0.6,-0.3 1.2,-0.7 1.8,-1 3.9,-2.5 8.4,-5.2 12.2,-7.6 0.6,-0.4 1.3,-0.8 1.8,-1.1 1.7,-1.1 2.8,-1.7 4.4,-2.8 0.7,-0.4 1.4,-0.8 2.1,-1.2 1.6,-1.1 2.7,-1.7 4.3,-2.8 0.6,-0.3 1.2,-0.7 1.8,-1 3.9,-2.5 8.4,-5.3 12.2,-7.7 0.6,-0.3 1.3,-0.8 1.8,-1.1 1.4,-0.8 2.9,-1.8 4.3,-2.7 0.7,-0.4 1.5,-0.9 2.2,-1.3 1.4,-0.9 2.7,-1.7 4,-2.6 0.8,-0.4 1.4,-0.8 2.1,-1.3 1.7,-1 3.7,-2.3 5.3,-3.3 0.3,-0.1 0.5,-0.3 0.8,-0.5 1.9,-1.2 3.9,-2.4 5.8,-3.6 0.8,-0.6 1.5,-1 2.3,-1.5 1.1,-0.7 2.6,-1.6 3.7,-2.3 0.9,-0.6 1.7,-1.1 2.6,-1.7 1.1,-0.7 2.4,-1.4 3.5,-2.1 0.8,-0.6 1.7,-1.1 2.6,-1.7 1.3,-0.9 2.4,-1.5 3.7,-2.4 1.4,-0.8 2.7,-1.7 4.1,-2.5 1.1,-0.7 2.5,-1.6 3.6,-2.3 1.1,-0.7 2.2,-1.4 3.3,-2.1 0.8,-0.5 1.7,-1.1 2.5,-1.6 1.1,-0.7 2.3,-1.5 3.5,-2.2 0.8,-0.5 1.4,-0.9 2.2,-1.4 1.3,-0.8 2.4,-1.6 3.7,-2.4 0.5,-0.3 0.9,-0.5 1.4,-0.9 4.6,-2.9 9.3,-5.9 13.9,-8.8 0.3,-0.2 0.6,-0.5 0.9,-0.6 1.5,-1 3.1,-2 4.6,-3 0.3,-0.2 0.5,-0.3 0.7,-0.4 841.3,-539.4 1470.5,-1146.9 1952.1,-1786.8 -224.5,40.9 -451.9,72 -677.1,72 -164.2,0 -327.3,-16.5 -487.2,-57.7 -160.2,-41.3 -313.6,-106.6 -474.7,-143.7 -122.3,-28.1 -245.3,-39.5 -369,-39.5"
         style="fill:#daf5ff;fill-opacity:1;fill-rule:nonzero;stroke:none"
         id="path38" /><path
         d="m 23522.3,16994 h -1295.4 c -95.5,4.7 -191.1,6.7 -286.9,6.7 -112.7,0 -225.6,-2.7 -338.4,-6.7 H 19091 c -2.1,21.8 -3.3,43.8 -3.3,66.1 0,376 304.9,680.9 680.9,680.9 120.2,0 233,-31.3 331,-85.9 106.5,293.2 347.3,522 648,611.9 56.9,-1.4 113.9,-2.3 170.9,-2.3 120.7,0 241.4,3.7 361.2,12.8 254.9,-65.4 470.1,-229.4 602.7,-449 75.7,23.6 156.2,36.3 239.6,36.3 322.7,0 601,-190 729.3,-464.3 44.1,11.5 90.3,17.6 138,17.6 259.9,0 477.2,-181.2 533,-424.1"
         style="fill:#ffffff;fill-opacity:1;fill-rule:nonzero;stroke:none"
         id="path40" /><path
         d="m 17230.9,15138.4 c -57.5,29.5 -112.1,62.7 -162.9,99.9 59.5,-25.1 114.3,-58.9 162.9,-99.9"
         style="fill:#ffffff;fill-opacity:1;fill-rule:nonzero;stroke:none"
         id="path42" /><path
         d="m 24703.7,13257.3 c -229.6,0 -458,23.8 -684.8,61.6 31,5.8 62.9,8.9 95.6,8.9 53.4,0 105,-8.2 153.5,-23.3 111.3,184.4 313.6,307.6 544.6,307.6 228.8,0 429.3,-120.8 541.3,-302 -184.9,-24.2 -369.9,-46 -556.2,-51.4 -31.3,-0.9 -62.7,-1.4 -94,-1.4"
         style="fill:#ffffff;fill-opacity:1;fill-rule:nonzero;stroke:none"
         id="path44" /><path
         d="m 12759,15270.5 c 0,0 0,0 0,0 33.2,34.2 65.6,69.1 97.3,104.9 -31.7,-35.9 -64.1,-70.7 -97.3,-104.9 m 97.6,105.2 c 0.7,0.8 1.4,1.6 2.1,2.3 -0.6,-0.7 -1.4,-1.6 -2.1,-2.3 m 2.6,2.9 c 0.5,0.6 1,1.2 1.6,1.8 -0.6,-0.6 -1.1,-1.3 -1.6,-1.8 m 2.3,2.6 c 0.4,0.4 0.8,0.9 1.2,1.3 -0.4,-0.4 -0.8,-0.9 -1.2,-1.3 m 3,3.5 c 0.2,0.1 0.3,0.3 0.5,0.5 -0.1,-0.2 -0.3,-0.4 -0.5,-0.5 m 1.9,2 c 0,0.1 0.1,0.2 0.1,0.2 l -0.1,-0.2 m 36.6,42.6 c 0.2,0.3 0.4,0.5 0.6,0.7 -0.1,-0.1 -0.4,-0.5 -0.6,-0.7 m 2.5,3 c 0.3,0.4 0.7,0.8 1,1.2 -0.4,-0.5 -0.6,-0.8 -1,-1.2 m 1.8,2.1 c 0.7,0.8 1.3,1.5 1.9,2.3 -0.6,-0.8 -1.2,-1.5 -1.9,-2.3 m 4.7,5.7 c 0.3,0.3 0.6,0.6 0.9,1 -0.4,-0.5 -0.5,-0.6 -0.9,-1 m 3.2,3.7 c 0.2,0.2 0.4,0.5 0.6,0.7 -0.2,-0.2 -0.5,-0.5 -0.6,-0.7 m 3.5,4.1 c 0.1,0.2 0.2,0.4 0.4,0.5 -0.1,-0.1 -0.3,-0.3 -0.4,-0.5 m 3.2,3.9 c 0.1,0.1 0.1,0.2 0.2,0.2 l -0.2,-0.2 m 6.2,7.4 c 0.2,0.2 0.4,0.5 0.6,0.7 -0.2,-0.3 -0.3,-0.4 -0.6,-0.7 m 16.3,19.3 c 0.1,0.2 0.3,0.3 0.4,0.5 -0.1,-0.2 -0.3,-0.3 -0.4,-0.5"
         style="fill:#ffffff;fill-opacity:1;fill-rule:nonzero;stroke:none"
         id="path46" /><path
         d="m 6170.27,10993.5 c -122.38,0 -244.45,7.3 -365.53,26.4 -347.71,54.8 -672.34,204.1 -991.83,351.9 -31.13,14.4 -62.27,28.8 -93.39,43.2 449.37,447.8 939.29,801.6 1450.88,1090.9 488.98,-62.3 981.87,-93.7 1474.78,-93.7 230.21,0 460.43,6.8 690.25,20.6 158.16,9.5 318.04,22.6 468.29,72.9 114.81,38.5 221.36,97.8 333.17,144.3 509.86,211.8 1085.91,143.2 1636.61,183.7 165.4,12.2 335.9,36.4 477.1,123.5 316.7,195 383.8,626.2 623.3,910.7 271.3,322.2 722.6,415 1080.7,636.7 130.7,80.9 261.8,204.7 253.2,358.2 -8.7,157.7 -158.9,266.1 -299.6,337.7 -49,24.9 -98.8,48.1 -149.2,70 33.2,34.2 65.6,69 97.3,104.9 0.1,0.1 0.2,0.2 0.3,0.3 0.7,0.7 1.5,1.6 2.1,2.3 0.2,0.2 0.3,0.4 0.5,0.6 0.5,0.5 1,1.2 1.6,1.8 0.2,0.2 0.4,0.5 0.7,0.8 0.4,0.4 0.8,0.9 1.2,1.3 0.6,0.7 1.2,1.4 1.8,2.2 0.2,0.1 0.4,0.3 0.5,0.5 0.5,0.5 0.9,1 1.4,1.5 l 0.1,0.2 c 12.3,14 24.5,28.2 36.5,42.4 0.2,0.2 0.5,0.6 0.6,0.7 0.6,0.8 1.3,1.5 1.9,2.3 0.4,0.4 0.6,0.7 1,1.2 0.3,0.3 0.6,0.6 0.8,0.9 0.7,0.8 1.3,1.5 1.9,2.3 v 0 c 1,1.1 1.9,2.2 2.8,3.4 0.4,0.4 0.5,0.5 0.9,1 0.8,0.9 1.5,1.8 2.3,2.7 0.1,0.2 0.4,0.5 0.6,0.7 0.9,1.1 1.9,2.3 2.9,3.4 0.1,0.2 0.3,0.4 0.4,0.5 0.9,1.2 1.9,2.3 2.8,3.4 l 0.2,0.2 c 2,2.4 4,4.8 6,7.2 0.3,0.3 0.4,0.4 0.6,0.7 5.2,6.2 10.5,12.4 15.7,18.6 0.1,0.2 0.3,0.3 0.4,0.5 264.1,313.1 561.7,646 889.2,982.9 128.2,-70.1 256.8,-140.4 391.8,-193.6 201.1,-79.3 417.3,-119.9 633.4,-119.9 68.5,0 137,4 204.9,12.2 39.2,4.8 79.7,10.6 119.2,10.6 38.9,0 76.7,-5.6 111.1,-23.5 44.5,-23.2 76.8,-64 104.8,-105.6 288.6,-428.4 209.2,-1064.9 -175.9,-1409.2 -259.7,-232.2 -622.8,-332 -860.4,-586.8 -229.5,-246.2 -303.9,-594.4 -451.3,-897 -278.7,-572.3 -828.9,-980.4 -1428.5,-1193.9 -504.6,-179.7 -1043.8,-234.1 -1581.1,-234.1 -101.2,0 -202.4,1.9 -303.2,5.3 -241,8.1 -483.9,24.1 -725.23,24.1 -238.26,0 -475.02,-15.6 -706.86,-69.6 -124.98,-29.1 -246.54,-69 -366.49,-114.1 -85.95,61.5 -191.26,97.7 -305.01,97.7 -190.7,0 -357.65,-101.7 -449.53,-253.8 -40.03,12.4 -82.58,19.1 -126.71,19.1 -170.69,0 -317.88,-100.5 -385.69,-245.5 -23.34,6.1 -47.81,9.3 -73.04,9.3 -92.17,0 -174.23,-43.1 -227.19,-110.3 -152.41,-19.8 -305.62,-35 -458.38,-50.1 -200.72,-19.9 -403.02,-39.7 -604.4,-39.7 m 5071.93,1218.3 c -142.3,-106.9 -284.5,-218.7 -422.7,-332.5 l 79.2,-96.2 c 136.8,112.6 277.5,223.3 418.4,329 l -74.9,99.7 m 888.8,605.4 c -151.1,-92.8 -303,-191.2 -451.5,-292.4 l 70.2,-103 c 146.9,100.1 297.1,197.4 446.5,289.1 l -65.2,106.3 m 943.8,516.1 c -159.5,-76.8 -320.5,-159.6 -478.5,-246.1 l 59.8,-109.3 c 156.1,85.5 315.2,167.2 472.7,243 l -54,112.4 m 994.2,411.8 c -167.4,-58.3 -336.6,-122.8 -503,-191.9 l 47.7,-115.1 c 164.2,68.1 331.2,131.8 496.3,189.3 l -41,117.7"
         style="fill:#daf5ff;fill-opacity:1;fill-rule:nonzero;stroke:none"
         id="path48" /><path
         d="m 7233.05,11083.3 c 52.96,67.2 135.02,110.3 227.19,110.3 25.23,0 49.7,-3.2 73.04,-9.3 67.81,145 215,245.5 385.69,245.5 44.13,0 86.68,-6.7 126.71,-19.1 91.88,152.1 258.83,253.8 449.53,253.8 113.75,0 219.06,-36.2 305.01,-97.7 -287.18,-107.9 -565.11,-245.7 -858.38,-337.3 -230.75,-72.1 -468.75,-114.9 -708.79,-146.2"
         style="fill:#ffffff;fill-opacity:1;fill-rule:nonzero;stroke:none"
         id="path50" /><path
         d="m 10898.7,11783.1 -79.2,96.2 c 138.2,113.8 280.4,225.6 422.7,332.5 l 74.9,-99.7 c -140.9,-105.7 -281.6,-216.4 -418.4,-329 m 851,638.7 -70.2,103 c 148.5,101.2 300.4,199.6 451.5,292.4 l 65.2,-106.3 c -149.4,-91.7 -299.6,-189 -446.5,-289.1 m 906.4,556.1 -59.8,109.3 c 158,86.5 319,169.3 478.5,246.1 l 54,-112.4 c -157.5,-75.8 -316.6,-157.5 -472.7,-243 m 957.6,460.2 -47.7,115.1 c 166.4,69.1 335.6,133.6 503,191.9 l 41,-117.7 c -165.1,-57.5 -332.1,-121.2 -496.3,-189.3"
         style="fill:#ffffff;fill-opacity:1;fill-rule:nonzero;stroke:none"
         id="path52" /><path
         d="m 17269.6,8634.2 h 1163 v 155.5 h -1163 z"
         style="fill:#4a8fe6;fill-opacity:1;fill-rule:nonzero;stroke:none"
         id="path54" /><path
         d="m 8638.53,6895.2 h 466.641 v 604.402 H 8638.53 Z"
         style="fill:#407ede;fill-opacity:1;fill-rule:nonzero;stroke:none"
         id="path56" /><path
         d="m 8638.53,4951 h 466.641 v 604.5 H 8638.53 Z"
         style="fill:#407ede;fill-opacity:1;fill-rule:nonzero;stroke:none"
         id="path58" /><path
         d="m 9355.57,6895.2 h 466.641 v 604.402 H 9355.57 Z"
         style="fill:#407ede;fill-opacity:1;fill-rule:nonzero;stroke:none"
         id="path60" /><path
         d="m 10072.6,6895.2 h 466.598 v 604.402 H 10072.6 Z"
         style="fill:#407ede;fill-opacity:1;fill-rule:nonzero;stroke:none"
         id="path62" /><path
         d="m 10072.6,3635.5 h 466.598 v 604.402 H 10072.6 Z"
         style="fill:#407ede;fill-opacity:1;fill-rule:nonzero;stroke:none"
         id="path64" /><path
         d="m 9355.57,5930.7 h 466.641 v 604.5 H 9355.57 Z"
         style="fill:#407ede;fill-opacity:1;fill-rule:nonzero;stroke:none"
         id="path66" /><path
         d="m 9355.57,2603.1 h 466.641 v 604.398 H 9355.57 Z"
         style="fill:#407ede;fill-opacity:1;fill-rule:nonzero;stroke:none"
         id="path68" /><path
         d="m 9355.57,4951 h 466.641 v 604.5 H 9355.57 Z"
         style="fill:#407ede;fill-opacity:1;fill-rule:nonzero;stroke:none"
         id="path70" /><path
         d="m 10688.9,4951 h 466.598 v 604.5 H 10688.9 Z"
         style="fill:#407ede;fill-opacity:1;fill-rule:nonzero;stroke:none"
         id="path72" /><path
         d="m 10688.9,2603.1 h 466.598 v 604.398 H 10688.9 Z"
         style="fill:#407ede;fill-opacity:1;fill-rule:nonzero;stroke:none"
         id="path74" /><path
         d="m 11275.6,6895.2 h 466.598 v 604.402 H 11275.6 Z"
         style="fill:#407ede;fill-opacity:1;fill-rule:nonzero;stroke:none"
         id="path76" /><path
         d="m 15059.3,9561.4 h 259.199 v 335.699 H 15059.3 Z"
         style="fill:#407ede;fill-opacity:1;fill-rule:nonzero;stroke:none"
         id="path78" /><path
         d="m 15598.5,9561.4 h 259.301 v 335.699 H 15598.5 Z"
         style="fill:#407ede;fill-opacity:1;fill-rule:nonzero;stroke:none"
         id="path80" /><path
         d="m 15059.3,8968.8 h 259.199 v 335.801 H 15059.3 Z"
         style="fill:#407ede;fill-opacity:1;fill-rule:nonzero;stroke:none"
         id="path82" /><path
         d="m 16137.8,8968.8 h 259.199 v 335.801 H 16137.8 Z"
         style="fill:#407ede;fill-opacity:1;fill-rule:nonzero;stroke:none"
         id="path84" /><path
         d="m 15598.5,8376.2 h 259.301 v 335.801 H 15598.5 Z"
         style="fill:#407ede;fill-opacity:1;fill-rule:nonzero;stroke:none"
         id="path86" /><path
         d="m 16137.8,8376.2 h 259.199 v 335.801 H 16137.8 Z"
         style="fill:#407ede;fill-opacity:1;fill-rule:nonzero;stroke:none"
         id="path88" /><path
         d="m 15059.3,7783.6 h 259.199 v 335.797 H 15059.3 Z"
         style="fill:#407ede;fill-opacity:1;fill-rule:nonzero;stroke:none"
         id="path90" /><path
         d="m 16137.8,7783.6 h 259.199 v 335.797 H 16137.8 Z"
         style="fill:#407ede;fill-opacity:1;fill-rule:nonzero;stroke:none"
         id="path92" /><path
         d="m 15059.3,7191 h 259.199 v 335.801 H 15059.3 Z"
         style="fill:#407ede;fill-opacity:1;fill-rule:nonzero;stroke:none"
         id="path94" /><path
         d="m 15598.5,7191 h 259.301 v 335.801 H 15598.5 Z"
         style="fill:#407ede;fill-opacity:1;fill-rule:nonzero;stroke:none"
         id="path96" /><path
         d="m 16137.8,6598.4 h 259.199 v 335.801 H 16137.8 Z"
         style="fill:#407ede;fill-opacity:1;fill-rule:nonzero;stroke:none"
         id="path98" /><path
         d="m 15059.3,5413.2 h 259.199 v 335.801 H 15059.3 Z"
         style="fill:#407ede;fill-opacity:1;fill-rule:nonzero;stroke:none"
         id="path100" /><path
         d="m 19259.3,6403.9 h 259.199 v 335.699 H 19259.3 Z"
         style="fill:#407ede;fill-opacity:1;fill-rule:nonzero;stroke:none"
         id="path102" /><path
         d="m 20699.3,6403.9 h 259.199 v 335.699 H 20699.3 Z"
         style="fill:#407ede;fill-opacity:1;fill-rule:nonzero;stroke:none"
         id="path104" /><path
         d="m 19960.1,7315.9 h 259.199 v 335.801 H 19960.1 Z"
         style="fill:#407ede;fill-opacity:1;fill-rule:nonzero;stroke:none"
         id="path106" /><path
         d="m 24126.6,6809.3 h 259.199 v 335.699 H 24126.6 Z"
         style="fill:#407ede;fill-opacity:1;fill-rule:nonzero;stroke:none"
         id="path108" /><path
         d="m 24993.5,6809.3 h 259.199 v 335.699 H 24993.5 Z"
         style="fill:#407ede;fill-opacity:1;fill-rule:nonzero;stroke:none"
         id="path110" /><path
         d="m 24993.5,6210.7 h 259.199 v 335.801 H 24993.5 Z"
         style="fill:#407ede;fill-opacity:1;fill-rule:nonzero;stroke:none"
         id="path112" /><path
         d="m 24126.6,5612.2 h 259.199 v 335.801 H 24126.6 Z"
         style="fill:#407ede;fill-opacity:1;fill-rule:nonzero;stroke:none"
         id="path114" /><path
         d="m 24993.5,5612.2 h 259.199 v 335.801 H 24993.5 Z"
         style="fill:#407ede;fill-opacity:1;fill-rule:nonzero;stroke:none"
         id="path116" /><path
         d="m 24126.6,5013.7 h 259.199 v 335.801 H 24126.6 Z"
         style="fill:#407ede;fill-opacity:1;fill-rule:nonzero;stroke:none"
         id="path118" /><path
         d="m 24560,4415.2 h 259.199 v 335.699 H 24560 Z"
         style="fill:#407ede;fill-opacity:1;fill-rule:nonzero;stroke:none"
         id="path120" /><path
         d="m 24993.5,4415.2 h 259.199 v 335.699 H 24993.5 Z"
         style="fill:#407ede;fill-opacity:1;fill-rule:nonzero;stroke:none"
         id="path122" /><path
         d="m 24993.5,3816.7 h 259.199 v 335.703 H 24993.5 Z"
         style="fill:#407ede;fill-opacity:1;fill-rule:nonzero;stroke:none"
         id="path124" /><path
         d="m 24126.6,3218.1 h 259.199 v 335.801 H 24126.6 Z"
         style="fill:#407ede;fill-opacity:1;fill-rule:nonzero;stroke:none"
         id="path126" /><path
         d="m 24560,3218.1 h 259.199 v 335.801 H 24560 Z"
         style="fill:#407ede;fill-opacity:1;fill-rule:nonzero;stroke:none"
         id="path128" /><path
         d="m 20517,7315.9 h 259.203 v 335.801 H 20517 Z"
         style="fill:#407ede;fill-opacity:1;fill-rule:nonzero;stroke:none"
         id="path130" /><path
         d="m 19739.3,5728.3 h 259.199 v 335.801 H 19739.3 Z"
         style="fill:#407ede;fill-opacity:1;fill-rule:nonzero;stroke:none"
         id="path132" /><path
         d="m 19263.7,5052.8 h -4.4 v 24.8 c 1.5,-8.3 3,-16.6 4.4,-24.8"
         style="fill:#407ede;fill-opacity:1;fill-rule:nonzero;stroke:none"
         id="path134" /><path
         d="m 20219.3,5052.8 h 259.199 v 335.699 H 20219.3 Z"
         style="fill:#407ede;fill-opacity:1;fill-rule:nonzero;stroke:none"
         id="path136" /><path
         d="m 20699.3,5052.8 h 259.199 v 335.699 H 20699.3 Z"
         style="fill:#407ede;fill-opacity:1;fill-rule:nonzero;stroke:none"
         id="path138" /><path
         d="m 19998.5,4631.1 c -10.3,27 -20.4,54.3 -30.2,81.9 h 30.2 v -81.9"
         style="fill:#407ede;fill-opacity:1;fill-rule:nonzero;stroke:none"
         id="path140" /><path
         d="m 19452.2,3701.7 h -192.9 v 335.7 h 153.6 c 14.3,-116.1 27.4,-228.6 39.3,-335.7"
         style="fill:#407ede;fill-opacity:1;fill-rule:nonzero;stroke:none"
         id="path142" /><path
         d="m 20478.5,3924.8 c -48.8,29.3 -94.9,67.4 -138.6,112.6 h 138.6 v -112.6"
         style="fill:#407ede;fill-opacity:1;fill-rule:nonzero;stroke:none"
         id="path144" /><path
         d="m 20699.3,3701.7 h 259.199 v 335.703 H 20699.3 Z"
         style="fill:#407ede;fill-opacity:1;fill-rule:nonzero;stroke:none"
         id="path146" /><path
         d="m 19340.9,2376.1 h -81.6 v 310.2 h 258 l -176.4,-310.2"
         style="fill:#407ede;fill-opacity:1;fill-rule:nonzero;stroke:none"
         id="path148" /><path
         d="m 11275.6,3635.5 h 466.598 v 604.402 H 11275.6 Z"
         style="fill:#407ede;fill-opacity:1;fill-rule:nonzero;stroke:none"
         id="path150" /><path
         d="m 12776.3,7186.3 h 1431.1 v 155.598 h -1431.1 z"
         style="fill:#4284e2;fill-opacity:1;fill-rule:nonzero;stroke:none"
         id="path152" /><path
         d="m 17269.6,7626.9 h 1163 v 155.602 h -1163 z"
         style="fill:#4284e2;fill-opacity:1;fill-rule:nonzero;stroke:none"
         id="path154" /><path
         d="m 17269.6,7291.1 h 1163 v 155.598 h -1163 z"
         style="fill:#4284e2;fill-opacity:1;fill-rule:nonzero;stroke:none"
         id="path156" /><path
         d="m 17269.6,6283.9 h 1163 v 155.496 h -1163 z"
         style="fill:#4284e2;fill-opacity:1;fill-rule:nonzero;stroke:none"
         id="path158" /><path
         d="m 21929.6,6584.1 h 1163 v 155.5 h -1163 z"
         style="fill:#4284e2;fill-opacity:1;fill-rule:nonzero;stroke:none"
         id="path160" /><path
         d="m 21929.6,6248.3 h 1163 v 155.602 h -1163 z"
         style="fill:#4284e2;fill-opacity:1;fill-rule:nonzero;stroke:none"
         id="path162" /><path
         d="m 21929.6,5576.8 h 1163 v 155.602 h -1163 z"
         style="fill:#4284e2;fill-opacity:1;fill-rule:nonzero;stroke:none"
         id="path164" /><path
         d="m 21929.6,4569.5 h 1163 v 155.602 h -1163 z"
         style="fill:#4284e2;fill-opacity:1;fill-rule:nonzero;stroke:none"
         id="path166" /><path
         d="m 21929.6,3898 h 1163 v 155.602 h -1163 z"
         style="fill:#4284e2;fill-opacity:1;fill-rule:nonzero;stroke:none"
         id="path168" /><path
         d="m 21929.6,3226.5 h 1163 v 155.602 h -1163 z"
         style="fill:#4284e2;fill-opacity:1;fill-rule:nonzero;stroke:none"
         id="path170" /><path
         d="m 23092.6,2555 h -745.4 c -32.6,54.2 -68.5,106.1 -107.6,155.5 h 853 V 2555"
         style="fill:#4284e2;fill-opacity:1;fill-rule:nonzero;stroke:none"
         id="path172" /><path
         d="m 17269.6,5276.6 h 1163 v 155.598 h -1163 z"
         style="fill:#4284e2;fill-opacity:1;fill-rule:nonzero;stroke:none"
         id="path174" /><path
         d="m 17269.6,4605.1 h 1163 v 155.5 h -1163 z"
         style="fill:#4284e2;fill-opacity:1;fill-rule:nonzero;stroke:none"
         id="path176" /><path
         d="m 12776.3,6739.6 h 1431.1 v 155.598 h -1431.1 z"
         style="fill:#4284e2;fill-opacity:1;fill-rule:nonzero;stroke:none"
         id="path178" /><path
         d="m 12776.3,6293 h 1431.1 v 155.5 h -1431.1 z"
         style="fill:#4284e2;fill-opacity:1;fill-rule:nonzero;stroke:none"
         id="path180" /><path
         d="m 12776.3,5399.6 h 1431.1 v 155.598 h -1431.1 z"
         style="fill:#4284e2;fill-opacity:1;fill-rule:nonzero;stroke:none"
         id="path182" /><path
         d="m 12776.3,4506.3 h 1431.1 v 155.598 h -1431.1 z"
         style="fill:#4284e2;fill-opacity:1;fill-rule:nonzero;stroke:none"
         id="path184" /><path
         d="m 12776.3,4122 v 93.2 h 175.8 c -0.2,-0.1 -0.5,-0.1 -0.7,-0.2 -65,-17.8 -123.2,-50.4 -175.1,-93"
         style="fill:#4284e2;fill-opacity:1;fill-rule:nonzero;stroke:none"
         id="path186" /><path
         d="m 13596.1,3166.3 h -819.8 v 130 l 1431.1,-22 v -8.2 c -24.5,1.2 -49,1.8 -73.8,1.8 -189.7,0 -371,-36 -537.5,-101.6"
         style="fill:#4284e2;fill-opacity:1;fill-rule:nonzero;stroke:none"
         id="path188" /><path
         d="m 12776.3,2358.6 v 69.9 h 31 c -10.9,-22.9 -21.3,-46.3 -31,-69.9"
         style="fill:#4284e2;fill-opacity:1;fill-rule:nonzero;stroke:none"
         id="path190" /><path
         d="m 17269.6,8298.4 h 1163 v 155.602 h -1163 z"
         style="fill:#4a8fe6;fill-opacity:1;fill-rule:nonzero;stroke:none"
         id="path192" /><path
         d="m 9154.05,9713.4 c 1.21,96.2 80.17,173.2 176.35,172 96.18,-1.2 173.17,-80.2 171.96,-176.3 -1.22,-96.2 -80.17,-173.2 -176.35,-172 -96.18,1.2 -173.17,80.2 -171.96,176.3 z m -171.83,-138.3 335.87,-666.7 352.56,658 c 104.38,241.4 -63.17,516.7 -325.91,527.7 -3.89,0.1 -7.79,0.2 -11.71,0.3 -3.91,0 -7.82,0 -11.71,0 -262.93,-4.3 -437.36,-275.4 -339.1,-519.3"
         style="fill:#ff5b7e;fill-opacity:1;fill-rule:nonzero;stroke:none"
         id="path194" /><path
         d="m 4212.52,3192.2 c 140.71,27.8 249.73,141.3 275.89,284.4 74.03,404.7 308.17,1117.1 1039.76,1130.1 861.72,15.4 1015.39,-630.7 995.05,-1101.3 -5.11,-118.4 91.38,-215 208.01,-210.2 254.9,10.6 626.63,-48.5 626.63,-483.3 0,0 230.51,-818.8 -425.01,-1016.2 -655.52,-197.4 -972.47,62.2 -1253.41,-201 -259.47,-243.1 -1105.79,-495.6 -1514.52,57.7 -63.92,86.5 -143.44,160 -233.26,218.2 -153.48,99.4 -355.48,340.6 -186.61,893.8 65.58,214.9 239.54,379 456.37,425.5 3.67,0.8 7.37,1.5 11.1,2.3"
         style="fill:#70c0fd;fill-opacity:1;fill-rule:nonzero;stroke:none"
         id="path196" /><path
         d="m 5810.71,2480.3 c -59.39,-45.7 -115.54,-97.8 -166.55,-156.9 -12.89,-14.9 -25.42,-30.3 -37.61,-46.2 4.47,72.8 13.12,130.4 26.6,167.8 15.53,43 60.6,115.8 115.9,218.9 60.36,75.9 134.09,153.4 212.99,220.1 85.12,71.6 178.19,132.6 284.14,166.4 -110.69,-17.3 -212.94,-64.7 -307.75,-123.7 -29.97,-18.7 -60.35,-39.2 -90.37,-61.4 126.33,285.2 250.47,702.6 199.36,1257.6 0,0 -14.35,-373.1 -94.58,-713.7 -13.2,55.3 -31.48,108.2 -52.52,159 -53.34,122.2 -88.58,175.8 -162.56,280.7 61.76,-113.2 90.66,-170.2 129.88,-296 78.04,-268.1 27.36,-358.4 -14.8,-449.7 -125.34,-271.3 -276.99,-466.6 -341.55,-625.6 -24.21,51.7 -48.83,102.9 -73.85,153.9 -53.55,108.8 -108.56,216.5 -165.86,322.6 -9.29,17.2 -18.65,34.4 -28.04,51.6 -6.76,22.9 -16.86,55 -28.69,129 -6.13,37.7 -11.24,75.8 -14.86,114.2 -9.14,99 -9.14,153.2 -7.78,232 -8.76,-80.6 -13.47,-134.1 -13.37,-233.4 0.12,-39.2 1.78,-78.4 4.52,-117.7 0.44,-6.4 1.01,-12.9 1.56,-19.4 l -0.95,1.7 c -29.88,52.1 -60.23,103.9 -91.82,154.7 -31.53,50.9 -63.94,101 -97.87,149.8 -33.93,48.7 -69.54,96 -108.07,139.8 35.85,-46.7 68.4,-96.4 99.23,-147.4 30.81,-51 60.01,-103.2 88.29,-156.1 28.33,-52.8 55.4,-106.5 81.96,-160.5 26.59,-54 52.33,-108.6 77.58,-163.4 3.25,-7 6.46,-14.1 9.68,-21.1 -16.94,5.2 -33.03,9.9 -61.43,17.1 -129.67,32.6 -236.81,41.8 -334.54,48.7 89.21,-16.1 196.29,-36.1 326.28,-83.9 30.51,-11.3 66.4,-25.6 96.24,-40.4 37.53,-83.7 73.81,-168 109.19,-252.8 23.24,-56 46.05,-112.1 68.23,-168.5 11.01,-28.1 22.03,-56.4 32.58,-84.6 l 0.27,-0.7 c -0.09,-7.2 0.09,-14.3 0.65,-21.3 3.93,-50.2 13.43,-171 23.65,-325 -81.43,42.2 -171.56,74.2 -270.45,93.4 -108.64,21.1 -189.36,17.7 -357.12,23.7 -13.89,9.2 -35.38,27.3 -56.5,51.2 -52.29,59.2 -89.32,136.6 -103.26,229.7 5.57,-94.4 35.79,-178.7 85.65,-248.1 7.65,-10.6 15.77,-20.9 24.34,-30.7 -47.51,2.4 -94.88,5.9 -142.08,11.7 -51.44,6.5 -102.7,15.7 -152.68,31.2 -49.81,15.5 -98.88,37.2 -141.63,71.8 40.52,-38 88.86,-64.1 138.37,-83.9 45.76,-18.2 92.99,-31.1 140.52,-41.5 -9.6,-1.6 -19.2,-3.2 -28.81,-4.8 -35.04,-6.3 -69.96,-13.4 -104.6,-21.9 -34.62,-8.7 -69.06,-18.3 -102.93,-30.2 -33.8,-12 -67.15,-25.8 -99.04,-43.1 32.94,14.5 66.87,25.3 101.07,34.3 34.27,8.8 68.93,15.4 103.64,21 34.76,5.5 69.68,9.6 104.61,12.7 34.87,3.1 135.06,6.7 169.64,7.4 h -0.03 c 179.13,-24.1 287.52,-25 408.8,-58.7 105.26,-29.4 200.24,-74.2 279.28,-128.5 3.46,-2.3 6.86,-4.8 10.28,-7.2 25.74,-418 49.08,-990.398 -5.62,-1135.098 -81.6,-215.8 413.6,-138.203 413.6,-138.203 0,0 -166.59,92.801 -232.5,578.301 -38.32,282.3 -81.12,647.2 -83.62,922.7 2.25,5.1 4.55,10.3 6.93,15.4 7.71,16.7 16.2,33.2 25.04,49.4 17.79,32.5 37.4,64 58.56,94.3 42.37,60.7 90.81,116.4 143.55,166.9 83.37,82.1 211.91,171.5 360.98,234.3 -153.06,-44.4 -292.22,-118.4 -387.35,-193.7"
         style="fill:#07085b;fill-opacity:1;fill-rule:nonzero;stroke:none"
         id="path198" /><path
         d="m 9232.87,2381.1 c 333.76,-6.2 662.86,85.3 942.43,267.6 224.8,146.6 435.5,362.5 474.4,667.1 89,696.2 -312.1,673.2 -410.4,957.1 -98.4,283.9 193.4,411 67.4,928.2 -67.6,277.8 -281.7,398.1 -615.53,844.5 -333.86,446.5 -738.25,675.3 -1033.36,508.8 -295.1,-166.5 -283.26,-524.5 -502.7,-643.8 -219.44,-119.3 -556.66,-535.4 -428.02,-1326.8 128.64,-791.3 -741.55,-496.2 -401.04,-1411.7 249.65,-671.3 1341.78,-780.5 1906.82,-791"
         style="fill:#70c0fd;fill-opacity:1;fill-rule:nonzero;stroke:none"
         id="path200" /><path
         d="m 8835.57,2979.6 c 31.03,-439.7 76.45,-2190.799 10.5,-2342.998 -98.36,-227 417.6,55.8 417.6,55.8 0,0 -137.11,1045.498 -216.56,1556.098 -35.36,227.3 -100.19,911.1 -100.8,970.6 2.71,5.4 5.47,10.8 8.35,16.2 9.29,17.6 19.52,34.9 30.18,52 21.45,34.1 45.08,67.3 70.6,99.2 51.07,63.8 109.47,122.4 173.06,175.5 119.72,102.9 284.44,191 435.16,246.4 -188.85,-47.7 -355.77,-126.9 -466.96,-203.7 -71.6,-48 -139.29,-102.9 -200.78,-165.1 -15.53,-15.7 -30.65,-31.8 -45.34,-48.5 5.39,76.5 15.81,137.2 32.07,176.4 18.71,45.3 73.04,121.9 139.72,230.3 70.49,77.5 160.32,160.4 256.76,231.5 104.9,77 216.75,140.1 342.54,175.1 -131.88,-18 -254.46,-66.9 -371.01,-130.1 -36.76,-20.1 -72.79,-41.4 -108.93,-64.6 152.29,299.9 301.95,739.1 240.33,1322.8 0,0 -17.3,-392.4 -114.02,-750.7 -15.92,58.2 -37.95,113.8 -63.31,167.3 -64.43,128.7 -106.95,185.1 -195.97,295.2 74.13,-118.6 109.19,-178.7 156.57,-311.4 91.04,-272.8 36.83,-369.7 -17.84,-473 -151.11,-285.4 -333.92,-490.8 -411.75,-658 -29.18,54.3 -58.86,108.2 -89.03,161.9 -64.55,114.4 -130.87,227.7 -199.95,339.3 -11.19,18.1 -22.47,36.2 -33.8,54.2 -10.5,31 -11.7,32.9 -22.17,76.6 -4.51,19.6 -8.77,39.3 -12.41,59.2 -7.39,39.7 -13.56,79.7 -17.93,120.1 -4.26,40.3 -7.74,80.9 -9,121.6 -2.26,42.8 -1,90.4 -0.38,122.4 -3.84,-30.9 -10.17,-79.1 -12.39,-122.3 -2.99,-40.9 -3.77,-82 -3.72,-123.2 0.16,-41.2 2.14,-82.5 5.46,-123.7 0.52,-6.9 1.22,-13.7 1.87,-20.5 l -1.13,1.8 c -36.03,54.8 -72.62,109.3 -110.7,162.7 -38.01,53.5 -77.08,106.3 -117.98,157.5 -40.91,51.3 -83.84,101 -130.28,147.1 43.21,-49.1 82.46,-101.4 119.62,-155 37.14,-53.7 72.34,-108.6 106.43,-164.2 34.16,-55.6 66.78,-112.1 98.81,-168.9 32.05,-56.8 63.08,-114.1 93.53,-171.8 3.91,-7.4 7.77,-14.8 11.67,-22.2 -69.17,18.5 -137.17,31.7 -207.9,42.7 -115.49,16.5 -158.42,19.7 -269.46,26.5 109.88,-17.2 151.76,-24.4 264.42,-51.6 115.05,-29.2 197.66,-58.6 244.93,-79.2 45.25,-88 88.99,-176.7 131.63,-265.9 28.03,-58.8 55.52,-117.9 82.26,-177.2 10.71,-23.9 26.45,-46.2 31.85,-71.8 19.65,-93 45.58,-498.4 45.58,-498.4"
         style="fill:#07085b;fill-opacity:1;fill-rule:nonzero;stroke:none"
         id="path202" /><path
         d="m 24459.9,9300.3 c 1.6,96.2 80.9,172.8 177.1,171.2 96.1,-1.7 172.8,-81 171.2,-177.1 -1.7,-96.2 -81,-172.8 -177.1,-171.2 -96.2,1.6 -172.9,80.9 -171.2,177.1 z m -172.5,-137.6 333,-668.2 355.4,656.5 c 105.5,240.9 -60.9,517 -323.6,529.1 -3.9,0.1 -7.8,0.3 -11.7,0.3 -3.9,0.1 -7.8,0.1 -11.7,0.1 -262.9,-3.2 -438.6,-273.5 -341.4,-517.8"
         style="fill:#07085b;fill-opacity:1;fill-rule:nonzero;stroke:none"
         id="path204" /><path
         d="m 6525.2,953 c 0,0 28.89,480 446.67,435.5 0,0 568.89,906.7 1164.44,-373.3 0,0 537.75,290.6 735.54,-341.399 0,0 331.12,616.899 802.24,412.499 471.11,-204.402 631.81,-765.8 631.81,-765.8 L 6828.81,246.402 6525.2,953"
         style="fill:#70c0fd;fill-opacity:1;fill-rule:nonzero;stroke:none"
         id="path206" /><path
         d="m 16905.9,10029.6 c -17.3,-11.5 -323.5,-561.7 -323.5,-561.7 l -412.1,362.5 400.4,667.5 335.2,-188.1 v -280.2"
         style="fill:#ffc0bb;fill-opacity:1;fill-rule:nonzero;stroke:none"
         id="path208" /><path
         d="m 16339,10111.7 c 50.8,-143.6 155,-333.8 363.4,-429.7 87.9,155.9 193.6,341 203.5,347.6 v 280.2 l -335.2,188.1 -231.7,-386.2"
         style="fill:#f99893;fill-opacity:1;fill-rule:nonzero;stroke:none"
         id="path210" /><path
         d="m 12598.4,4471.7 c 0,0 -116.5,82.2 -227.9,-180.9 -111.3,-263.2 38.3,-367.8 38.3,-367.8 0,0 191.5,141.7 189.6,168.7 -1.8,27 -8.7,366.8 -8.7,366.8 l 8.7,13.2"
         style="fill:#ffffff;fill-opacity:1;fill-rule:nonzero;stroke:none"
         id="path212" /><path
         d="m 12790,4566.6 c 0,0 -94.3,58.1 -200.3,-108.1 -39.1,-61.2 -79.8,-152.9 -118,-289.2 -141.7,-506.1 0,-506.1 0,-506.1 l 237.9,101.2 c 0,0 227.7,580.3 214.2,627.6 -13.5,47.2 -133.8,174.6 -133.8,174.6"
         style="fill:#ff5b7e;fill-opacity:1;fill-rule:nonzero;stroke:none"
         id="path214" /><path
         d="m 14790.9,5869.7 h -3956.8 c -30.9,0 -56,-25.1 -56,-56 v -43.1 c 0,-31 25.1,-56.1 56,-56.1 h 3956.8 c 30.9,0 56,25.1 56,56.1 v 43.1 c 0,30.9 -25.1,56 -56,56"
         style="fill:#283f56;fill-opacity:1;fill-rule:nonzero;stroke:none"
         id="path216" /><path
         d="m 14082.8,5068.4 h -273.3 v 723.7 h 273.3 v -723.7"
         style="fill:#283f56;fill-opacity:1;fill-rule:nonzero;stroke:none"
         id="path218" /><path
         d="m 11889.1,5265.8 h -91.5 c -65.5,0 -118.7,53.2 -118.7,118.8 v 549.2 h 328.9 v -549.2 c 0,-65.6 -53.1,-118.8 -118.7,-118.8"
         style="fill:#283f56;fill-opacity:1;fill-rule:nonzero;stroke:none"
         id="path220" /><path
         d="m 11962.3,5430.3 c 39.3,-44.9 997,-946.4 997,-946.4 l -81,-111.4 -1012.2,998.3 96.2,59.5"
         style="fill:#283f56;fill-opacity:1;fill-rule:nonzero;stroke:none"
         id="path222" /><path
         d="m 20660.4,3767.9 h 53.6 c 111.8,0 202.5,-90.7 202.5,-202.5 v -259.8 h -249.7 c 0,0 -111.3,192.3 -151.8,151.8 -40.5,-40.5 145.4,310.5 145.4,310.5"
         style="fill:#ffe5b6;fill-opacity:1;fill-rule:nonzero;stroke:none"
         id="path224" /><path
         d="m 15600.6,1800.9 c 0,-810.298 -656.8,-1467.099 -1467,-1467.099 -810.2,0 -1467,656.801 -1467,1467.099 0,810.2 656.8,1467 1467,1467 810.2,0 1467,-656.8 1467,-1467"
         style="fill:#1a1a1a;fill-opacity:1;fill-rule:nonzero;stroke:none"
         id="path226" /><path
         d="m 14794.9,1800.9 c 0,-365.2 -296.1,-661.3 -661.3,-661.3 -365.2,0 -661.3,296.1 -661.3,661.3 0,365.2 296.1,661.2 661.3,661.2 365.2,0 661.3,-296 661.3,-661.2"
         style="fill:#9e9da2;fill-opacity:1;fill-rule:nonzero;stroke:none"
         id="path228" /><path
         d="m 22555.6,1800.9 c 0,-810.298 -656.8,-1467.099 -1467,-1467.099 -810.3,0 -1467.1,656.801 -1467.1,1467.099 0,810.2 656.8,1467 1467.1,1467 810.2,0 1467,-656.8 1467,-1467"
         style="fill:#1a1a1a;fill-opacity:1;fill-rule:nonzero;stroke:none"
         id="path230" /><path
         d="m 21749.8,1800.9 c 0,-365.2 -296,-661.3 -661.2,-661.3 -365.2,0 -661.3,296.1 -661.3,661.3 0,365.2 296.1,661.2 661.3,661.2 365.2,0 661.2,-296 661.2,-661.2"
         style="fill:#9e9da2;fill-opacity:1;fill-rule:nonzero;stroke:none"
         id="path232" /><path
         d="m 15885.3,2017 h -3465.8 c -168.6,0 -305.2,136.6 -305.2,305.1 V 2636 c 0,168.6 136.6,305.2 305.2,305.2 h 3465.8 V 2017"
         style="fill:#283f56;fill-opacity:1;fill-rule:nonzero;stroke:none"
         id="path234" /><path
         d="m 16548.9,4670.9 h -2886.3 c -109.9,0 -198.9,89.1 -198.9,199 V 5023 c 0,109.9 89,198.9 198.9,198.9 h 2886.3 c 109.9,0 198.9,-89 198.9,-198.9 v -153.1 c 0,-109.9 -89,-199 -198.9,-199"
         style="fill:#ff5b7e;fill-opacity:1;fill-rule:nonzero;stroke:none"
         id="path236" /><path
         d="m 16632.9,4722.6 c 0,0 -262.7,-145.1 -475.2,-752.4 -212.6,-607.2 -167,-1523.3 1153.8,-1594.1 h 2029.4 l 202.4,355.9 c 0,0 -172,2422.5 -566.8,3495.4 h 668 c 0,0 201.7,-2062.1 910.1,-2340.4 68.2,-26.7 112.2,-93.4 112.2,-166.6 V 3312.3 L 19593.9,1925.7 h -3532.4 c 0,0 -830,-73.2 -1032.4,1336 l -2394.9,36.7 c -131.3,2.1 -224.3,129.4 -185.8,254.9 74.8,243.2 226.9,586.3 503,661.7 438,119.6 3681.5,507.6 3681.5,507.6"
         style="fill:#333333;fill-opacity:1;fill-rule:nonzero;stroke:none"
         id="path238" /><path
         d="m 12763.7,4136.3 c 3.2,-5.5 6.6,-11 10.1,-16.5 h 3440.9 l 35.1,81 c 189.4,414.8 383.1,521.8 383.1,521.8 h -3529.2 c -300.9,0 -493.8,-327.6 -340,-586.3"
         style="fill:#283f56;fill-opacity:1;fill-rule:nonzero;stroke:none"
         id="path240" /><path
         d="m 12555.2,2941.2 h 2570.9 c 276.3,0 470.2,272.5 379.5,533.4 -137,394 -455.3,817.8 -1239,890.4 -1012.2,93.7 -1624.3,-715.1 -1866.5,-1164.1 -63.3,-117.3 21.8,-259.7 155.1,-259.7"
         style="fill:#ff5b7e;fill-opacity:1;fill-rule:nonzero;stroke:none"
         id="path242" /><path
         d="m 19593.9,1925.7 789.5,1275.3 c 0,0 404.9,313.8 1204.5,151.8 496.6,-100.6 790.2,-432 941.4,-668.6 70.1,-109.8 -8.1,-253.6 -138.3,-253.6 h -1215.7 c -372.8,0 -725.4,-168.7 -959.3,-458.9 l -31.2,-38.7 c -168.8,-209.4 -423.4,-331.2 -692.4,-331.2 -181.8,0 -356.8,69.4 -489.3,194 l -137.9,129.9 h 728.7"
         style="fill:#ff5b7e;fill-opacity:1;fill-rule:nonzero;stroke:none"
         id="path244" /><path
         d="m 19699.2,7497.1 c 0,107.2 -98,187.8 -203.2,167.1 -447.7,-88.1 -917.7,-446.8 -917.7,-876.1 0,-429.2 470,-787.9 917.7,-876 105.2,-20.7 203.2,59.9 203.2,167.1 v 1417.9"
         style="fill:#ff5b7e;fill-opacity:1;fill-rule:nonzero;stroke:none"
         id="path246" /><path
         d="M 19699.2,7493.3 V 6083 c 299,95 515.6,374.7 515.6,705.1 0,330.5 -216.6,610.2 -515.6,705.2"
         style="fill:#ffffff;fill-opacity:1;fill-rule:nonzero;stroke:none"
         id="path248" /><path
         d="m 14556.8,5869.7 h -3488.6 v 2103.6 h 3488.6 V 5869.7"
         style="fill:#ff5b7e;fill-opacity:1;fill-rule:nonzero;stroke:none"
         id="path250" /><path
         d="m 14631,8238.2 h -3637 v -264.9 h 3637 v 264.9"
         style="fill:#d12a56;fill-opacity:1;fill-rule:nonzero;stroke:none"
         id="path252" /><path
         d="m 11915.5,5442.9 c 0,-39.8 -32.3,-72.1 -72.1,-72.1 -39.9,0 -72.2,32.3 -72.2,72.1 0,39.9 32.3,72.1 72.2,72.1 39.8,0 72.1,-32.2 72.1,-72.1"
         style="fill:#282828;fill-opacity:1;fill-rule:nonzero;stroke:none"
         id="path254" /><path
         d="m 14929.6,3725.7 h -1661.4 c -19.2,0 -34.7,15.5 -34.7,34.7 v 26.7 c 0,19.2 15.5,34.7 34.7,34.7 h 1661.4 c 19.1,0 34.7,-15.5 34.7,-34.7 v -26.7 c 0,-19.2 -15.6,-34.7 -34.7,-34.7"
         style="fill:#333333;fill-opacity:1;fill-rule:nonzero;stroke:none"
         id="path256" /><path
         d="m 14929.6,3482.4 h -1661.4 c -19.2,0 -34.7,15.6 -34.7,34.7 v 26.8 c 0,19.1 15.5,34.7 34.7,34.7 h 1661.4 c 19.1,0 34.7,-15.6 34.7,-34.7 v -26.8 c 0,-19.1 -15.6,-34.7 -34.7,-34.7"
         style="fill:#333333;fill-opacity:1;fill-rule:nonzero;stroke:none"
         id="path258" /><path
         d="m 17939.3,3650 -126.8,-1362.1 -109,-196.3 -195.9,141.7 4,1451.6 427.7,-34.9"
         style="fill:#ffc0bb;fill-opacity:1;fill-rule:nonzero;stroke:none"
         id="path260" /><path
         d="m 18674.8,3777.7 -62.5,-1489.8 -108.9,-196.3 -195.9,141.7 3.9,1451.6 363.4,92.8"
         style="fill:#ffc0bb;fill-opacity:1;fill-rule:nonzero;stroke:none"
         id="path262" /><path
         d="m 19111.3,1999 -845.6,-2.9 c -6.6,0 -12,5.3 -12,11.9 l -0.2,63.6 c 0,6.6 5.3,12 11.9,12.1 l 845.6,2.8 c 6.6,0 12,-5.3 12,-11.9 l 0.2,-63.6 c 0.1,-6.6 -5.3,-12 -11.9,-12"
         style="fill:#daeef7;fill-opacity:1;fill-rule:nonzero;stroke:none"
         id="path264" /><path
         d="m 18292.4,2349.6 -28,-243.5 c -3.5,-30 13.4,-57.2 35.5,-57.1 l 766.2,2.5 c 19.9,0.1 39.5,12.6 49.9,36 10.7,24 12.7,60 -21.8,108.4 -68.9,96.8 -294.4,119.6 -404.9,202.1 l -356.9,-1.2 c -20,-0.1 -36.9,-20.1 -40,-47.2"
         style="fill:#ff5b7e;fill-opacity:1;fill-rule:nonzero;stroke:none"
         id="path266" /><path
         d="m 18635.6,2256.5 v 0 c -5.6,3.3 -7.6,12.7 -4.4,19.8 14.9,33.4 61.7,114.7 157.4,98.4 5.5,-1 9.3,-8.3 8.4,-15.9 l -0.1,-0.2 c -0.8,-7.4 -5.8,-12.2 -11.2,-11.3 -85.8,14.4 -125.5,-57.3 -137.6,-85.3 -2.6,-6 -7.9,-8.3 -12.5,-5.5"
         style="fill:#daeef7;fill-opacity:1;fill-rule:nonzero;stroke:none"
         id="path268" /><path
         d="m 18715.3,2225.4 v 0 c -5.6,3.4 -7.6,12.7 -4.5,19.8 15,33.4 61.7,114.8 157.5,98.4 5.5,-0.9 9.3,-8.3 8.4,-15.8 l -0.1,-0.3 c -0.9,-7.3 -5.8,-12.1 -11.2,-11.3 -85.8,14.4 -125.5,-57.3 -137.6,-85.3 -2.6,-6 -7.9,-8.3 -12.5,-5.5"
         style="fill:#daeef7;fill-opacity:1;fill-rule:nonzero;stroke:none"
         id="path270" /><path
         d="m 18789.4,2196.4 v 0 c -5.6,3.4 -7.6,12.7 -4.4,19.8 14.9,33.4 61.6,114.8 157.4,98.4 5.5,-0.9 9.3,-8.3 8.4,-15.8 l -0.1,-0.3 c -0.8,-7.3 -5.8,-12.1 -11.2,-11.2 -85.8,14.3 -125.5,-57.4 -137.6,-85.4 -2.6,-5.9 -7.9,-8.3 -12.5,-5.5"
         style="fill:#daeef7;fill-opacity:1;fill-rule:nonzero;stroke:none"
         id="path272" /><g
         id="g274"><g
           id="g276"
           clip-path="url(#clipPath280)"><path
             d="m 18274.8,2196.5 h 7.602 v 66.1992 h -7.602 z"
             style="fill:#312b28;fill-opacity:1;fill-rule:nonzero;stroke:none"
             id="path282" /></g></g><path
         d="m 18304.1,2049 -0.1,25.6 c 0,5.1 -3.3,9.5 -7.8,11.1 0.3,0.6 0.5,1.2 0.8,1.8 10.6,24 12.6,60 -21.8,108.4 -0.1,0.2 -0.3,0.4 -0.4,0.6 l 7.6,66.2 c 4.3,0.4 8.8,0.6 13.5,0.6 58.7,0 152,-31.9 208.5,-213.6 l -200.3,-0.7"
         style="fill:#f84d64;fill-opacity:1;fill-rule:nonzero;stroke:none"
         id="path284" /><path
         d="m 14929.6,3239.2 h -1661.4 c -19.2,0 -34.7,15.5 -34.7,34.7 v 26.7 c 0,19.2 15.5,34.7 34.7,34.7 h 1661.4 c 19.1,0 34.7,-15.5 34.7,-34.7 v -26.7 c 0,-19.2 -15.6,-34.7 -34.7,-34.7"
         style="fill:#333333;fill-opacity:1;fill-rule:nonzero;stroke:none"
         id="path286" /><path
         d="m 18138.1,5654.8 c 100.2,-7.7 516.4,-177.3 570.3,-477.9 54,-300.6 0,-2636 0,-2636 H 18246 c 0,0 -370,1849.9 -370,1903.8 0,54 262.1,1210.1 262.1,1210.1"
         style="fill:#282828;fill-opacity:1;fill-rule:nonzero;stroke:none"
         id="path288" /><path
         d="m 14962.6,6325.3 c 7.7,-23.1 -101.6,-1055.9 951.2,-1140.7 1052.7,-84.8 1661.6,-223.5 1661.6,-223.5 0,0 -146.4,-2335.4 -138.7,-2451 0,0 362.2,-61.6 516.4,-38.5 0,0 824.7,2589.7 585.8,3121.5 -239,531.9 -2142.7,732.2 -2142.7,732.2 h -1433.6"
         style="fill:#333333;fill-opacity:1;fill-rule:nonzero;stroke:none"
         id="path290" /><path
         d="m 16715.2,8182.2 c 0,0 10.8,-502.7 44.3,-549.3 33.4,-46.5 1628.8,-655.9 1628.8,-655.9 l -261.9,-296.1 -1175.4,335.8 c 0,0 -841.9,302 -833.3,323.8 8.6,21.8 54.9,331.1 96.6,452.2 41.6,121.2 198.7,395 198.7,395 l 302.2,-5.5"
         style="fill:#f9b7b4;fill-opacity:1;fill-rule:nonzero;stroke:none"
         id="path292" /><path
         d="m 16126.7,9936.3 c 0,0 -1065.9,-387.3 -1187.3,-2491.4 l -52,-1196.6 c 0,0 1214,-520.3 1907.6,-69.4 0,0 70.3,2135.7 143.3,2916.5 12.4,131.7 -41.3,260.8 -143.1,345.2 -232.6,192.6 -629.3,513.8 -668.5,495.7"
         style="fill:#feb546;fill-opacity:1;fill-rule:nonzero;stroke:none"
         id="path294" /><path
         d="m 15756.7,8441.3 c 0,0 -260.6,-1077.2 103.7,-1373.2 227.2,-184.6 2345.7,-546.6 2345.7,-546.6 l 136.6,330.2 c 0,0 -1687,602.1 -1787.7,671.8 -100.7,69.8 68.3,990.7 68.3,990.7 l -866.6,-72.9"
         style="fill:#ffc0bb;fill-opacity:1;fill-rule:nonzero;stroke:none"
         id="path296" /><path
         d="m 16580.7,9546.6 c -95.4,84.7 -232.2,107 -349.8,57.4 -162.8,-68.7 -395.9,-264 -521.9,-813.7 L 15602.2,8316 c 0,0 791.9,-194.4 1034.8,-183.4 l 124.3,733.3 c 0,0 70.4,458.2 -180.6,680.7"
         style="fill:#f4a640;fill-opacity:1;fill-rule:nonzero;stroke:none"
         id="path298" /><path
         d="m 13988,8238.2 h -648.5 L 12123.7,5869.7 c 106.1,0 436.3,0 648.5,0 L 13988,8238.2"
         style="fill:#333333;fill-opacity:1;fill-rule:nonzero;stroke:none"
         id="path300" /><path
         d="m 12952.7,7384.9 c -27.6,14.2 -61.6,3.3 -75.8,-24.4 L 12749,7111.4 c -14.2,-27.6 -3.2,-61.6 24.4,-75.8 l 435.2,-223.4 c 27.6,-14.2 61.6,-3.2 75.8,24.4 l 127.9,249.1 c 14.2,27.6 3.2,61.6 -24.4,75.8 z m 219.5,-643.6 -435.2,223.4 c -66.7,34.3 -93.1,116.4 -58.9,183.1 L 12806,7397 c 34.2,66.7 116.4,93.1 183.1,58.8 l 435.2,-223.4 c 66.7,-34.2 93.2,-116.4 58.9,-183.1 l -127.9,-249.1 c -34.2,-66.7 -116.4,-93.1 -183.1,-58.9"
         style="fill:#ffe5b6;fill-opacity:1;fill-rule:nonzero;stroke:none"
         id="path302" /><path
         d="m 16471.6,10728.8 c 53.7,-116.8 10.1,-247.8 -97.4,-292.6 -107.5,-44.9 -238.1,13.4 -291.8,130.2 -53.7,116.8 -10.1,247.7 97.4,292.6 107.4,44.9 238.1,-13.4 291.8,-130.2"
         style="fill:#ffc0bb;fill-opacity:1;fill-rule:nonzero;stroke:none"
         id="path304" /><path
         d="m 18292.3,1999 -845.6,-2.9 c -6.6,0 -12,5.3 -12,11.9 l -0.2,63.6 c -0.1,6.6 5.3,12 11.9,12.1 l 845.6,2.8 c 6.6,0 12,-5.3 12,-11.9 l 0.2,-63.6 c 0,-6.6 -5.3,-12 -11.9,-12"
         style="fill:#daeef7;fill-opacity:1;fill-rule:nonzero;stroke:none"
         id="path306" /><path
         d="m 17473.4,2349.6 -28,-243.5 c -3.5,-30 13.4,-57.2 35.4,-57.1 l 766.3,2.5 c 19.9,0.1 39.5,12.6 49.9,36 10.6,24 12.6,60 -21.8,108.4 -68.9,96.8 -294.4,119.6 -404.9,202.1 l -357,-1.2 c -19.9,-0.1 -36.8,-20.1 -39.9,-47.2"
         style="fill:#ff5b7e;fill-opacity:1;fill-rule:nonzero;stroke:none"
         id="path308" /><path
         d="m 17816.5,2256.5 v 0 c -5.5,3.3 -7.6,12.7 -4.4,19.8 15,33.4 61.7,114.7 157.5,98.4 5.5,-1 9.3,-8.3 8.3,-15.9 v -0.2 c -0.9,-7.4 -5.8,-12.2 -11.2,-11.3 -85.8,14.4 -125.5,-57.3 -137.6,-85.3 -2.6,-6 -7.9,-8.3 -12.6,-5.5"
         style="fill:#daeef7;fill-opacity:1;fill-rule:nonzero;stroke:none"
         id="path310" /><path
         d="m 17896.2,2225.4 v 0 c -5.5,3.4 -7.6,12.7 -4.4,19.8 14.9,33.4 61.7,114.8 157.4,98.4 5.6,-0.9 9.3,-8.3 8.4,-15.8 v -0.3 c -0.9,-7.3 -5.9,-12.1 -11.2,-11.3 -85.8,14.4 -125.6,-57.3 -137.6,-85.3 -2.6,-6 -8,-8.3 -12.6,-5.5"
         style="fill:#daeef7;fill-opacity:1;fill-rule:nonzero;stroke:none"
         id="path312" /><path
         d="m 17970.3,2196.4 v 0 c -5.5,3.4 -7.6,12.7 -4.4,19.8 14.9,33.4 61.7,114.8 157.4,98.4 5.6,-0.9 9.4,-8.3 8.4,-15.8 v -0.3 c -0.9,-7.3 -5.9,-12.1 -11.2,-11.2 -85.8,14.3 -125.5,-57.4 -137.6,-85.4 -2.6,-5.9 -7.9,-8.3 -12.6,-5.5"
         style="fill:#daeef7;fill-opacity:1;fill-rule:nonzero;stroke:none"
         id="path314" /><path
         d="m 17444.9,2098.5 c 0,2.5 0.2,5 0.5,7.6 -0.3,-2.6 -0.5,-5.1 -0.5,-7.6"
         style="fill:#312b28;fill-opacity:1;fill-rule:nonzero;stroke:none"
         id="path316" /><path
         d="m 17480.7,2049 c -20.1,0 -35.9,22.7 -35.8,49.5 0,2.5 0.2,5 0.5,7.6 v 0 l 18,156.6 c 4.2,0.4 8.7,0.6 13.5,0.6 58.6,0 152,-31.9 208.4,-213.6 l -204.5,-0.7 c 0,0 0,0 -0.1,0"
         style="fill:#f84d64;fill-opacity:1;fill-rule:nonzero;stroke:none"
         id="path318" /><path
         d="m 19785.6,1567.5 h -4276.8 c -100.9,0 -182.8,81.8 -182.8,182.8 v 140.8 c 0,100.9 81.9,182.8 182.8,182.8 h 4276.8 c 101,0 182.8,-81.9 182.8,-182.8 v -140.8 c 0,-101 -81.8,-182.8 -182.8,-182.8"
         style="fill:#283f56;fill-opacity:1;fill-rule:nonzero;stroke:none"
         id="path320" /><path
         d="m 13349.9,320.5 h -2834.1 c 0,0 -14.5,4.402 -38.9,12.5 h 2857 c 5.3,-4.199 10.6,-8.398 16,-12.5"
         style="fill:#f4fcff;fill-opacity:1;fill-rule:nonzero;stroke:none"
         id="path322" /><path
         d="m 13333.9,333 h -2857 c -43.8,14.402 -119.7,40.199 -200.8,71.699 -27.9,70.5 -76.6,177.102 -151.3,288.102 78.8,9.801 186.3,15.398 328.8,15.398 20.1,0 40.7,-0.097 62.2,-0.297 0,0 -608.75,452.398 85.1,452.398 82.6,0 183.6,-6.4 306.3,-20.7 1153.9,-134.9 1261.8,-478.998 1261.8,-478.998 0,0 62.4,110.3 256.7,110.3 176.4,0 461.7,-90.902 908.2,-437.902"
         style="fill:#dce9fa;fill-opacity:1;fill-rule:nonzero;stroke:none"
         id="path324" /><path
         d="m 10276.1,404.699 c -242.9,94.504 -532.74,240.801 -151.3,288.102 74.7,-111 123.4,-217.602 151.3,-288.102"
         style="fill:#e2f2ff;fill-opacity:1;fill-rule:nonzero;stroke:none"
         id="path326" /><path
         d="m 17068.7,328.602 c -2.2,1.398 -4.5,2.898 -6.7,4.398 h 611.4 l -604.7,-4.398"
         style="fill:#f4fcff;fill-opacity:1;fill-rule:nonzero;stroke:none"
         id="path328" /><path
         d="M 17673.4,333 H 17062 c -525.8,343.898 -369.7,431.699 -72.8,431.699 310.3,0 774.1,-95.898 774.1,-95.898 25.4,45.301 78.5,63.898 148.7,63.898 321.4,0 999.9,-390.699 999.9,-390.699 l -1238.5,-9"
         style="fill:#dce9fa;fill-opacity:1;fill-rule:nonzero;stroke:none"
         id="path330" /><path
         d="m 22854,327.102 h -3232.5 c 0,0 -1.7,2.101 -4.6,5.898 h 3232.2 c 3.3,-3.898 4.9,-5.898 4.9,-5.898"
         style="fill:#f4fcff;fill-opacity:1;fill-rule:nonzero;stroke:none"
         id="path332" /><path
         d="m 22849.1,333 h -3232.2 c -28.8,37.402 -173.2,242.602 119.6,242.602 58.5,0 134.3,-8.2 231.9,-27.5 0,0 -184.5,237.5 -21.3,331.199 268.9,-332.699 680.3,-545.5 1141.5,-545.5 463.6,0 877.1,215.199 1145.9,551 C 22603.8,613.402 22814.9,373 22849.1,333"
         style="fill:#dce9fa;fill-opacity:1;fill-rule:nonzero;stroke:none"
         id="path334" /><path
         d="m 21088.6,333.801 c -461.2,0 -872.6,212.801 -1141.5,545.5 40,23 101,37.301 190.8,37.301 91.3,0 212.3,-14.801 371.3,-50.301 l 579.4,-194.102 c 0,0 -249.5,315.703 -348.3,566.401 101.2,-62.8 220.5,-99 348.3,-99 170.5,0 325.9,64.5 443.2,170.5 275.3,-134.2 510.4,-284 702.7,-425.299 -268.8,-335.801 -682.3,-551 -1145.9,-551"
         style="fill:#d1d1d1;fill-opacity:1;fill-rule:nonzero;stroke:none"
         id="path336" /><path
         d="m 21088.6,1139.6 c -127.8,0 -247.1,36.2 -348.3,99 -65,165.2 -64.6,302.3 115.8,302.3 78.8,0 191.9,-26.2 348.9,-87.5 114.4,-44.7 223.5,-93 326.8,-143.3 -117.3,-106 -272.7,-170.5 -443.2,-170.5"
         style="fill:#ecebec;fill-opacity:1;fill-rule:nonzero;stroke:none"
         id="path338" /><path
         d="M 15238.3,328.602 H 14384 c 0,0 -0.7,1.5 -1.9,4.398 h 851.2 c 1.7,-1.5 3.3,-2.898 5,-4.398"
         style="fill:#f4fcff;fill-opacity:1;fill-rule:nonzero;stroke:none"
         id="path340" /><path
         d="m 15233.3,333 h -851.2 c -1.7,4.301 -4.5,11.5 -7.4,20.602 206,34 397.5,111 565,221.3 82.4,-62.703 179.6,-142.402 293.6,-241.902"
         style="fill:#dce9fa;fill-opacity:1;fill-rule:nonzero;stroke:none"
         id="path342" /><path
         d="m 14374.7,353.602 c -13.8,43.898 -28.5,130.398 68.9,130.398 32.7,0 77.9,-9.699 140,-34 0,0 -168.6,329.398 -16.9,329.398 61.4,0 174.9,-53.597 373,-204.496 -167.5,-110.3 -359,-187.3 -565,-221.3"
         style="fill:#d1d1d1;fill-opacity:1;fill-rule:nonzero;stroke:none"
         id="path344" /><path
         d="m 17283.1,10216 -41.9,-163.3 c 0,0 -365.6,296.3 -362.7,302.1 2.9,5.8 66.5,111.3 93.9,102.6 27.5,-8.7 255.8,-96.8 255.8,-102.6 0,-5.8 54.9,-138.8 54.9,-138.8"
         style="fill:#ffffff;fill-opacity:1;fill-rule:nonzero;stroke:none"
         id="path346" /><path
         d="m 17027.3,10328.3 c 111.3,-108.4 220.3,-130.9 269.5,-135.2 15.6,56.3 26.4,97 26.4,97 0,0 123,38.1 162.5,81.9 0,0 -124.4,170.2 -126.2,250 -1.8,79.8 122.1,558.1 -222.2,829.1 -344.3,270.9 -548.9,-215.1 -548.9,-215.1 l -146,-503.1 -200.5,-304.3 c 0,0 47.9,-275.1 321.3,-468.6 273.5,-193.5 575,-119.6 626.2,-95.9 12.6,5.8 49.3,124.7 81.1,235.4 -178.2,61.4 -243.2,228.8 -243.2,228.8"
         style="fill:#ffc0bb;fill-opacity:1;fill-rule:nonzero;stroke:none"
         id="path348" /><path
         d="m 17091.4,10637 c 14.6,-25.1 47.8,-34.2 74.2,-20.2 26.3,13.9 35.9,45.6 21.3,70.7 -14.6,25.1 -47.8,34.1 -74.1,20.2 -26.4,-13.9 -36,-45.6 -21.4,-70.7"
         style="fill:#333333;fill-opacity:1;fill-rule:nonzero;stroke:none"
         id="path350" /><path
         d="m 17013.2,10733.2 c 19.1,16.1 37.8,30.3 57.3,42.2 19.4,11.9 39.6,21.2 60.6,27.2 20.9,5.7 42.6,9.9 65.1,9.4 l 8.5,0.3 c 2.9,0.1 5.7,-0.4 8.6,-0.5 l 17.4,-0.9 c 11.7,-0.7 23.3,-3.1 36.1,-3.4 -9.7,7.1 -20,13.7 -31.2,19.1 -11.5,4 -23,9.8 -35.8,11.2 -24.9,5.7 -52.2,3.6 -77.6,-3.7 -25.5,-7.3 -49.1,-21.1 -67.9,-38.6 -18.5,-17.8 -33.7,-38.8 -41.1,-62.3"
         style="fill:#333333;fill-opacity:1;fill-rule:nonzero;stroke:none"
         id="path352" /><path
         d="m 16644.4,11000.5 c 0,0 -120.9,-102.5 -151.1,-573.2 -23.4,-365.1 -329,-424.4 -322.9,-422.4 6.1,2 85.9,802 101.3,829 15.4,27 118.2,331.4 134.3,339.1 16,7.7 224.1,-128.1 235.7,-131.5 11.5,-3.4 2.7,-41 2.7,-41"
         style="fill:#d12a56;fill-opacity:1;fill-rule:nonzero;stroke:none"
         id="path354" /><path
         d="m 17612.8,11334.9 c 0,0 -123.3,808.2 -1159.9,764.4 -1036.7,-43.8 -1002.7,-1246.1 -1002.7,-1246.1 0,0 -41.7,-871.2 578.7,-871 0,0 420.1,-27 420.1,497.1 0,507 154.2,507 154.2,507 l 1009.6,348.6"
         style="fill:#ff5b7e;fill-opacity:1;fill-rule:nonzero;stroke:none"
         id="path356" /><path
         d="m 15449.6,10820.4 c 0,19.4 0.5,31.3 0.6,33.4 0,-0.4 0,-0.6 0,-0.6 0,0 -0.6,-11.9 -0.6,-32.8 m 0.5,48.6 c 0.1,82.2 12.3,488.5 226.5,812.4 0,-0.2 0,-0.5 0.1,-0.7 -213.6,-322.8 -226.4,-727.4 -226.6,-811.7"
         style="fill:#caa3be;fill-opacity:1;fill-rule:nonzero;stroke:none"
         id="path358" /><path
         d="m 16039.2,9982.9 c -6.6,0 -10.3,0.2 -10.3,0.2 -0.1,0 -0.1,0 -0.2,0 -546.7,0 -579.1,677 -579.1,837.3 0,20.9 0.6,32.8 0.6,32.8 0,0 0,0.2 0,0.6 0,0.2 0,0.3 0,0.3 0,0 -0.2,5.2 -0.1,14.9 0.2,84.3 13,488.9 226.6,811.7 19.2,-519.3 203,-1019.5 772,-1220.8 -9.7,-455.5 -346,-477 -409.5,-477"
         style="fill:#ff3d5e;fill-opacity:1;fill-rule:nonzero;stroke:none"
         id="path360" /><path
         d="m 16131.1,10309.8 c 0,-64.9 -52.7,-117.6 -117.6,-117.6 -64.9,0 -117.5,52.7 -117.5,117.6 0,64.9 52.6,117.5 117.5,117.5 64.9,0 117.6,-52.6 117.6,-117.5"
         style="fill:#d12a56;fill-opacity:1;fill-rule:nonzero;stroke:none"
         id="path362" /><path
         d="m 16603.2,10986.3 c 31.4,10.8 822,71.8 1193.3,100 63.4,4.8 85.7,86.6 33.5,123 l -217.2,151.4 -1009.6,-374.4"
         style="fill:#1a1a1a;fill-opacity:1;fill-rule:nonzero;stroke:none"
         id="path364" /><path
         d="m 16603.2,10986.3 c 35.2,12.1 807.3,267.8 1029.5,341.3 31.9,10.6 48,46.2 34.8,77.2 l -29.9,70.2 c -13.3,31.2 -50.6,44.3 -80.4,28.1 l -954,-516.8"
         style="fill:#283f56;fill-opacity:1;fill-rule:nonzero;stroke:none"
         id="path366" /><path
         d="m 18149.2,6885.9 c 0,0 261.9,159.4 375.7,159.4 113.9,0 353,-68.3 353,-182.2 0,-113.9 -68.3,-182.2 -68.3,-182.2 l -231.3,-199.5 c 0,0 -110.3,-85.1 -155.8,-39.6 -45.6,45.6 -182.2,-11.4 -407.7,113.3 -221.3,122.4 -13.7,194.1 20.5,228.3 34.2,34.2 113.9,102.5 113.9,102.5"
         style="fill:#ffc0bb;fill-opacity:1;fill-rule:nonzero;stroke:none"
         id="path368" /><path
         d="m 18874.6,6717.6 c 0,-133.8 -108.5,-242.3 -242.3,-242.3 -133.8,0 -242.3,108.5 -242.3,242.3 0,133.8 108.5,242.3 242.3,242.3 133.8,0 242.3,-108.5 242.3,-242.3"
         style="fill:#1a1a1a;fill-opacity:1;fill-rule:nonzero;stroke:none"
         id="path370" /><path
         d="M 29782.3,41.7031 H 4439.15 c -57.99,0 -105,46.9961 -105,104.9999 v 80.899 c 0,57.898 47.01,105 105,105 H 29782.3 c 58,0 105,-47.102 105,-105 v -80.899 c 0,-58.0038 -47,-104.9999 -105,-104.9999"
         style="fill:#07085b;fill-opacity:1;fill-rule:nonzero;stroke:none"
         id="path372" /><path
         d="m 24893.4,1899.9 c -275.5,-5.1 -547.1,70.4 -777.9,220.9 -185.5,121 -359.3,299.2 -391.5,550.5 -73.4,574.6 257.6,555.6 338.7,789.9 81.2,234.3 -159.6,339.3 -55.6,766.1 55.8,229.3 232.5,328.6 508,697 275.5,368.5 609.3,557.3 852.9,419.9 243.5,-137.4 233.7,-432.9 414.9,-531.3 181.1,-98.4 459.4,-441.9 353.2,-1095 -106.2,-653.1 612,-409.6 331,-1165.2 -206.1,-554 -1107.4,-644.2 -1573.7,-652.8"
         style="fill:#70c0fd;fill-opacity:1;fill-rule:nonzero;stroke:none"
         id="path374" /><path
         d="m 25221.3,2393.8 c -25.7,-362.9 -63.1,-1808.101 -8.7,-1933.698 81.2,-187.301 -344.7,46.097 -344.7,46.097 0,0 113.2,862.801 178.8,1284.301 29.1,187.5 82.7,751.9 83.2,801 -2.3,4.5 -4.6,8.9 -6.9,13.4 -95,179.4 -293.5,365.7 -585.2,473 224.1,-56.6 434.4,-169.8 588.5,-344.4 -4.4,63.1 -13,113.2 -26.4,145.6 -42.8,103.5 -117.8,226.6 -327.3,381.1 -42.6,31.3 -87.2,60.1 -134.2,84.9 -23.5,12.4 -47.7,23.6 -72.4,33.8 -24.7,10 -50.1,18.6 -76.1,25.8 26.7,-3.6 53.3,-8.7 79.5,-15.3 26.2,-6.9 52.3,-14.9 77.8,-24.2 51.2,-18.7 100.9,-41.8 148.9,-67.9 30.5,-16.6 60.4,-34.3 89.9,-53.3 -125.6,247.6 -249.2,610 -198.3,1091.8 0,0 14.3,-323.9 94.1,-619.6 13.1,48 31.3,93.9 52.3,138 47.4,94.8 74,129.5 115.9,187.1 15.1,19.1 30.6,37.8 45.8,56.6 -12.9,-20.6 -25.9,-40.9 -38.5,-61.5 -33.8,-60.8 -55.8,-97.8 -90.7,-195.5 -15.1,-45 -27,-90.9 -33.7,-137.1 -10,-77.5 -4.6,-134 -4.6,-134 15.9,-42.2 33.5,-82.4 53,-119.3 124.7,-235.5 275.6,-405 339.8,-543 24.1,44.8 48.6,89.3 73.5,133.6 53.3,94.4 108,187.9 165,280 9.2,15 18.6,29.9 27.9,44.7 22.4,66.2 36.1,144.5 43.3,211.2 9,84.7 9.2,131.2 7.8,201.4 8.5,-68.7 13.4,-115.6 13.3,-202.6 -0.1,-34 -1.8,-68.1 -4.5,-102.1 -0.5,-5.7 -1,-11.3 -1.6,-16.9 l 1,1.4 c 29.7,45.3 59.9,90.3 91.3,134.4 31.4,44.1 63.6,87.7 97.4,130 33.8,42.3 69.2,83.3 107.5,121.4 -35.6,-40.6 -68,-83.7 -98.7,-128 -30.7,-44.3 -59.7,-89.6 -87.8,-135.5 -28.2,-45.9 -55.2,-92.5 -81.6,-139.4 -26.4,-46.8 -52,-94.2 -77.2,-141.8 -3.2,-6.1 -6.4,-12.2 -9.6,-18.3 10.7,2.8 26.8,7.2 61.1,14.8 130.4,28.6 237.4,36.5 332.9,42.3 -88.7,-13.9 -195.5,-31.4 -324.7,-72.8 -31.5,-10.2 -65.4,-22 -95.7,-35.1 -37.4,-72.6 -73.5,-145.9 -108.7,-219.5 -23.1,-48.5 -45.8,-97.3 -67.8,-146.2 -8.9,-19.8 -21.9,-38.2 -26.3,-59.3 -16.2,-76.8 -37.6,-411.4 -37.6,-411.4"
         style="fill:#07085b;fill-opacity:1;fill-rule:nonzero;stroke:none"
         id="path376" /><path
         d="m 4651.87,328.602 c 0,0 248.89,376.199 702.22,295.5 0,0 249.6,530.098 942.33,536.198 702.12,6.3 835.45,-482.8 835.45,-482.8 0,0 200,168.801 653.34,-4.5 453.33,-173.398 613.33,-485.898 613.33,-485.898 l -3746.67,141.5"
         style="fill:#07085b;fill-opacity:1;fill-rule:nonzero;stroke:none"
         id="path378" /><path
         d="m 27847,953 c 0,0 -28.9,480 -446.7,435.5 0,0 -568.9,906.7 -1164.4,-373.3 0,0 -537.8,290.6 -735.6,-341.399 0,0 -331.1,616.899 -802.2,412.499 C 24227,881.898 24066.3,320.5 24066.3,320.5 L 27543.4,246.402 27847,953"
         style="fill:#70c0fd;fill-opacity:1;fill-rule:nonzero;stroke:none"
         id="path380" /><path
         d="m 29720.3,328.602 c 0,0 -248.9,376.199 -702.2,295.5 0,0 -249.6,530.098 -942.3,536.198 -702.1,6.3 -835.5,-482.8 -835.5,-482.8 0,0 -200,168.801 -653.3,-4.5 -453.3,-173.398 -613.3,-485.898 -613.3,-485.898 l 3746.6,141.5"
         style="fill:#07085b;fill-opacity:1;fill-rule:nonzero;stroke:none"
         id="path382" /><path
         d="m 27021.9,3130.1 c -261,133.5 -480.4,355.9 -558.9,627.4 -75.6,261.7 -17,539.7 46.6,804.4 27.8,115.8 56,239.9 10.8,350.7 -28.1,69 -81.9,125 -130.7,182.6 -421.8,496.9 -518,1179.3 -464.6,1815.4 14.9,176.6 41.3,356.8 129.1,513.1 87.8,156.2 248.2,285.8 434.3,298.1 287.4,18.9 561.2,-235.3 834.9,-149.9 196.2,61.3 295.1,272 472.9,371.7 149.4,83.7 334,78.8 507.3,71.3 54.6,-2.3 110.4,-4.9 160.9,-24.7 114.6,-44.9 173,-164.9 209.4,-277.3 58.8,-181.8 87.9,-371.4 146.9,-553.1 59.1,-181.8 153.4,-361.1 312.7,-476.5 127.8,-92.7 286.4,-136.6 430.5,-204.5 356.3,-167.9 615.6,-479.2 808,-809.7 57.6,-98.9 110.6,-201.3 140,-310.8 92.5,-344.5 -86.1,-737.8 -413.3,-910.5 -121.7,-64.3 -258.6,-99.6 -379.8,-164.7 -277.9,-149.1 -439.7,-431.6 -598.8,-694.3 -159.1,-262.7 -350.7,-536.4 -650.3,-640.9 -409.3,-142.9 -1075.8,-8.2 -1447.9,182.2"
         style="fill:#70c0fd;fill-opacity:1;fill-rule:nonzero;stroke:none"
         id="path384" /><path
         d="m 29909.5,4872.8 c -64.9,9.4 -130.2,14.2 -195.5,17.1 -65.3,2.7 -130.7,2.3 -196.1,0.3 -17.9,-0.6 -35.8,-1.4 -53.6,-2.3 83.2,39.7 165.2,84.3 243,138.6 84.1,58.9 164.4,129.7 227,220.5 -67.7,-85 -150.5,-147.5 -236.4,-198.2 -86.2,-50.6 -176.6,-89.6 -268,-123.3 -84,-30.7 -168.9,-56.8 -254.5,-80.7 12.8,22.6 24.5,46 35.4,69.9 24,53.2 43.5,109.1 57.8,166.8 14.6,57.6 23.7,116.8 28.2,176.2 4.1,59.5 3.4,119.1 -1.9,177.7 0.4,-59 -3.8,-117.8 -12.6,-175.2 -9.2,-57.3 -22.7,-113.2 -41.2,-166.2 -18.2,-53.2 -41,-103.7 -67.6,-150.4 -13.3,-23.4 -27.5,-45.9 -42.6,-67.2 -11.9,-16.7 -34.3,-47.6 -49.5,-57.2 -70.2,-18.5 -140.8,-36.2 -211.4,-54.2 -224.6,-58.2 -541.5,-132.3 -889.3,-429.7 -14.6,173.9 -30.5,373.1 -41.4,512.5 -9.3,118.7 -2.4,238.4 20.7,354.2 l 0.3,1.8 c 24.1,119.4 49.3,238.6 75.4,357.6 39.8,180.5 81.4,360.4 125.5,539.5 88.5,376.3 67.8,425.4 75.6,511 2.1,23.2 2.4,46.6 0.3,69.8 -0.1,1.3 -0.2,2.4 -0.2,3.5 -6.3,78 -14.6,155.4 -25.6,232.2 -28.5,195.1 -52.6,298.3 -91.4,451.5 25.8,-157.9 40.8,-262.7 52.6,-457.4 4.4,-76.5 6.1,-153.2 5.8,-229.6 0,-38.2 -1.1,-76.3 -2.5,-114.3 -0.9,-18.9 -1.7,-37.9 -2.9,-56.7 -0.6,-9.4 -1.2,-18.8 -2,-28.1 -0.4,-5.6 -31.7,-140.1 -43.6,-177.6 -73.5,-231.2 -142.3,-464.5 -208.2,-699.3 -30.8,-110 -60.7,-220.4 -89.8,-331.4 0,0 -14.8,-51.4 -30.2,-149.1 -6.9,21.5 -64.3,180.2 -92.1,245.5 -140.3,329.9 -281.6,611.7 -515.1,950.2 -89.6,129.9 -101.4,142.4 -220.1,296.5 147.3,-216.6 104.1,-150.5 204.4,-312.1 213.2,-350.9 340.2,-643.1 460.8,-975.1 43.8,-131.6 66.9,-198.1 111.3,-371.5 5.3,-20.9 10.5,-41.8 15.1,-62.9 2.7,-11.8 5.4,-23.6 8,-35.4 -9.7,-163.3 -3.5,-327.3 15.7,-489.3 7.9,-66.1 85,-1252.6 93.9,-1687.6 20,-977.5 -152.5,-2083.501 -152.5,-2083.501 0,0 1033.9,-322 823.8,67.301 -140.8,261 -479.2,2619.6 -552.7,3448.6 5.5,6.1 11,12.3 16.6,18.4 314.3,340.2 641.1,451.1 873.1,532.6 106.9,37.2 214.6,73.8 321.6,114.3 l -0.1,-0.1 c 63,12.7 245.8,46.4 310,54.6 64.2,8.1 128.8,14.4 193.4,17.8 64.6,3.1 129.4,4.4 194.1,1 64.6,-3.7 129.3,-11 193.2,-26 -62.8,20.9 -127.3,34.3 -192,44.1"
         style="fill:#07085b;fill-opacity:1;fill-rule:nonzero;stroke:none"
         id="path386" /></g></g></svg>
